<svg width="47" height="45" viewBox="0 0 47 45" fill="none" xmlns="http://www.w3.org/2000/svg">
<mask id="path-1-outside-1_51_555" maskUnits="userSpaceOnUse" x="-0.890015" y="-0.889999" width="48" height="45" fill="black">
<rect fill="white" x="-0.890015" y="-0.889999" width="48" height="45"/>
<path d="M37.0408 30.1843H19.8938C18.3334 30.174 16.822 29.6762 15.6028 28.7709C14.3836 27.8656 13.5273 26.6054 13.1717 25.1931L10.4391 14.8678C10.1877 13.909 10.1748 12.9096 10.4014 11.9456C10.6281 10.9815 11.0882 10.0782 11.7469 9.30426C12.4055 8.53036 13.2454 7.90627 14.2026 7.47946C15.1597 7.05265 16.209 6.83436 17.2706 6.84119H39.8143C40.8759 6.83436 41.9252 7.05265 42.8823 7.47946C43.8395 7.90627 44.6794 8.53036 45.338 9.30426C45.9967 10.0782 46.4568 10.9815 46.6835 11.9456C46.9101 12.9096 46.8972 13.909 46.6458 14.8678L43.9132 25.2185C43.5442 26.6484 42.6628 27.9191 41.4138 28.8216C40.1648 29.7241 38.6226 30.2046 37.0408 30.1843ZM17.1886 10.0163C16.6485 10.0178 16.1159 10.1329 15.6305 10.3529C15.145 10.573 14.7195 10.8922 14.3857 11.2869C14.0518 11.6815 13.8184 12.1412 13.7028 12.6315C13.5872 13.1219 13.5925 13.6302 13.7182 14.1184L16.4508 24.4692C16.6359 25.1945 17.0795 25.8403 17.7096 26.3015C18.3397 26.7627 19.1192 27.0121 19.9212 27.0092H37.0408C37.8427 27.0121 38.6222 26.7627 39.2523 26.3015C39.8824 25.8403 40.3261 25.1945 40.5111 24.4692L43.2437 14.1184C43.3722 13.63 43.3795 13.1208 43.265 12.6294C43.1505 12.138 42.9173 11.6772 42.5829 11.282C42.2485 10.8868 41.8218 10.5674 41.3351 10.3481C40.8483 10.1288 40.3143 10.0153 39.7733 10.0163H17.1886Z"/>
<path d="M12.4339 17.5729C12.0437 17.5686 11.6669 17.4403 11.3661 17.2092C11.0653 16.9781 10.8587 16.6583 10.7807 16.3029L8.33504 6.43478C8.10921 5.53583 7.56184 4.73474 6.7825 4.16258C6.00316 3.59042 5.03799 3.28106 4.0449 3.28511H1.81785C1.36489 3.28511 0.930492 3.11785 0.610206 2.82013C0.28992 2.52241 0.109985 2.11862 0.109985 1.69758C0.109985 1.27654 0.28992 0.872743 0.610206 0.575023C0.930492 0.277302 1.36489 0.110045 1.81785 0.110045H4.0449C5.80987 0.104314 7.52477 0.655068 8.90951 1.67235C10.2942 2.68963 11.267 4.11331 11.6688 5.71086L14.1008 15.579C14.1534 15.7817 14.1622 15.9921 14.1267 16.198C14.0912 16.4038 14.012 16.6011 13.8938 16.7783C13.7756 16.9556 13.6207 17.1092 13.4381 17.2303C13.2555 17.3515 13.0489 17.4377 12.8301 17.484C12.7018 17.5264 12.569 17.5562 12.4339 17.5729ZM20.1534 43.926C19.0725 43.926 18.0159 43.628 17.1172 43.0698C16.2184 42.5116 15.5179 41.7182 15.1043 40.7899C14.6906 39.8617 14.5824 38.8402 14.7933 37.8548C15.0042 36.8693 15.5247 35.9641 16.289 35.2537C17.0533 34.5432 18.0271 34.0594 19.0872 33.8634C20.1474 33.6673 21.2462 33.7679 22.2449 34.1525C23.2435 34.5369 24.097 35.1881 24.6975 36.0235C25.2981 36.8589 25.6186 37.8411 25.6186 38.8459C25.6186 40.1932 25.0428 41.4853 24.0179 42.438C22.993 43.3907 21.6029 43.926 20.1534 43.926ZM20.1534 36.89C19.7427 36.89 19.3412 37.0032 18.9997 37.2154C18.6581 37.4275 18.3919 37.729 18.2348 38.0817C18.0776 38.4344 18.0364 38.8226 18.1166 39.1971C18.1967 39.5715 18.3945 39.9155 18.6849 40.1855C18.9754 40.4555 19.3454 40.6393 19.7483 40.7138C20.1511 40.7883 20.5687 40.7501 20.9482 40.6039C21.3277 40.4578 21.652 40.2104 21.8802 39.893C22.1084 39.5755 22.2302 39.2023 22.2302 38.8205C22.2302 38.3085 22.0114 37.8175 21.6219 37.4554C21.2325 37.0934 20.7042 36.89 20.1534 36.89ZM39.0355 43.926C37.9546 43.926 36.898 43.628 35.9993 43.0698C35.1005 42.5116 34.4 41.7182 33.9864 40.7899C33.5728 39.8617 33.4645 38.8402 33.6754 37.8548C33.8863 36.8693 34.4068 35.9641 35.1711 35.2537C35.9354 34.5432 36.9092 34.0594 37.9693 33.8634C39.0295 33.6673 40.1283 33.7679 41.127 34.1525C42.1256 34.5369 42.9791 35.1881 43.5797 36.0235C44.1802 36.8589 44.5007 37.8411 44.5007 38.8459C44.5007 40.1932 43.9249 41.4853 42.9 42.438C41.8751 43.3907 40.485 43.926 39.0355 43.926ZM39.0355 36.89C38.6254 36.8925 38.2252 37.0079 37.8855 37.2215C37.5458 37.4352 37.2817 37.7375 37.1266 38.0905C36.9715 38.4434 36.9324 38.8312 37.014 39.2048C37.0957 39.5784 37.2946 39.9212 37.5855 40.1899C37.8765 40.4586 38.2466 40.6412 38.649 40.7147C39.0515 40.7881 39.4684 40.7492 39.8471 40.6027C40.2257 40.4562 40.5493 40.2088 40.7769 39.8916C41.0045 39.5744 41.126 39.2017 41.126 38.8205C41.126 38.5659 41.0718 38.3138 40.9666 38.0788C40.8614 37.8437 40.7072 37.6303 40.5129 37.4509C40.3186 37.2715 40.088 37.1296 39.8345 37.0333C39.5809 36.937 39.3094 36.8883 39.0355 36.89Z"/>
<path d="M39.0355 36.89H16.2732C14.8636 36.89 13.5117 36.3695 12.515 35.443C11.5183 34.5165 10.9583 33.2599 10.9583 31.9496C10.9583 30.6393 11.5183 29.3827 12.515 28.4562C13.5117 27.5297 14.8636 27.0092 16.2732 27.0092H19.8938C20.3468 27.0092 20.7812 27.1765 21.1015 27.4742C21.4218 27.7719 21.6017 28.1757 21.6017 28.5967C21.6017 29.0178 21.4218 29.4216 21.1015 29.7193C20.7812 30.017 20.3468 30.1843 19.8938 30.1843H16.2732C15.7695 30.1843 15.2864 30.3703 14.9303 30.7013C14.5741 31.0324 14.374 31.4814 14.374 31.9496C14.374 32.4178 14.5741 32.8668 14.9303 33.1979C15.2864 33.529 15.7695 33.715 16.2732 33.715H39.0355C39.4885 33.715 39.9229 33.8822 40.2432 34.1799C40.5635 34.4776 40.7434 34.8814 40.7434 35.3025C40.7434 35.7235 40.5635 36.1273 40.2432 36.425C39.9229 36.7228 39.4885 36.89 39.0355 36.89Z"/>
</mask>
<path d="M37.0408 30.1843H19.8938C18.3334 30.174 16.822 29.6762 15.6028 28.7709C14.3836 27.8656 13.5273 26.6054 13.1717 25.1931L10.4391 14.8678C10.1877 13.909 10.1748 12.9096 10.4014 11.9456C10.6281 10.9815 11.0882 10.0782 11.7469 9.30426C12.4055 8.53036 13.2454 7.90627 14.2026 7.47946C15.1597 7.05265 16.209 6.83436 17.2706 6.84119H39.8143C40.8759 6.83436 41.9252 7.05265 42.8823 7.47946C43.8395 7.90627 44.6794 8.53036 45.338 9.30426C45.9967 10.0782 46.4568 10.9815 46.6835 11.9456C46.9101 12.9096 46.8972 13.909 46.6458 14.8678L43.9132 25.2185C43.5442 26.6484 42.6628 27.9191 41.4138 28.8216C40.1648 29.7241 38.6226 30.2046 37.0408 30.1843ZM17.1886 10.0163C16.6485 10.0178 16.1159 10.1329 15.6305 10.3529C15.145 10.573 14.7195 10.8922 14.3857 11.2869C14.0518 11.6815 13.8184 12.1412 13.7028 12.6315C13.5872 13.1219 13.5925 13.6302 13.7182 14.1184L16.4508 24.4692C16.6359 25.1945 17.0795 25.8403 17.7096 26.3015C18.3397 26.7627 19.1192 27.0121 19.9212 27.0092H37.0408C37.8427 27.0121 38.6222 26.7627 39.2523 26.3015C39.8824 25.8403 40.3261 25.1945 40.5111 24.4692L43.2437 14.1184C43.3722 13.63 43.3795 13.1208 43.265 12.6294C43.1505 12.138 42.9173 11.6772 42.5829 11.282C42.2485 10.8868 41.8218 10.5674 41.3351 10.3481C40.8483 10.1288 40.3143 10.0153 39.7733 10.0163H17.1886Z" fill="black"/>
<path d="M12.4339 17.5729C12.0437 17.5686 11.6669 17.4403 11.3661 17.2092C11.0653 16.9781 10.8587 16.6583 10.7807 16.3029L8.33504 6.43478C8.10921 5.53583 7.56184 4.73474 6.7825 4.16258C6.00316 3.59042 5.03799 3.28106 4.0449 3.28511H1.81785C1.36489 3.28511 0.930492 3.11785 0.610206 2.82013C0.28992 2.52241 0.109985 2.11862 0.109985 1.69758C0.109985 1.27654 0.28992 0.872743 0.610206 0.575023C0.930492 0.277302 1.36489 0.110045 1.81785 0.110045H4.0449C5.80987 0.104314 7.52477 0.655068 8.90951 1.67235C10.2942 2.68963 11.267 4.11331 11.6688 5.71086L14.1008 15.579C14.1534 15.7817 14.1622 15.9921 14.1267 16.198C14.0912 16.4038 14.012 16.6011 13.8938 16.7783C13.7756 16.9556 13.6207 17.1092 13.4381 17.2303C13.2555 17.3515 13.0489 17.4377 12.8301 17.484C12.7018 17.5264 12.569 17.5562 12.4339 17.5729ZM20.1534 43.926C19.0725 43.926 18.0159 43.628 17.1172 43.0698C16.2184 42.5116 15.5179 41.7182 15.1043 40.7899C14.6906 39.8617 14.5824 38.8402 14.7933 37.8548C15.0042 36.8693 15.5247 35.9641 16.289 35.2537C17.0533 34.5432 18.0271 34.0594 19.0872 33.8634C20.1474 33.6673 21.2462 33.7679 22.2449 34.1525C23.2435 34.5369 24.097 35.1881 24.6975 36.0235C25.2981 36.8589 25.6186 37.8411 25.6186 38.8459C25.6186 40.1932 25.0428 41.4853 24.0179 42.438C22.993 43.3907 21.6029 43.926 20.1534 43.926ZM20.1534 36.89C19.7427 36.89 19.3412 37.0032 18.9997 37.2154C18.6581 37.4275 18.3919 37.729 18.2348 38.0817C18.0776 38.4344 18.0364 38.8226 18.1166 39.1971C18.1967 39.5715 18.3945 39.9155 18.6849 40.1855C18.9754 40.4555 19.3454 40.6393 19.7483 40.7138C20.1511 40.7883 20.5687 40.7501 20.9482 40.6039C21.3277 40.4578 21.652 40.2104 21.8802 39.893C22.1084 39.5755 22.2302 39.2023 22.2302 38.8205C22.2302 38.3085 22.0114 37.8175 21.6219 37.4554C21.2325 37.0934 20.7042 36.89 20.1534 36.89ZM39.0355 43.926C37.9546 43.926 36.898 43.628 35.9993 43.0698C35.1005 42.5116 34.4 41.7182 33.9864 40.7899C33.5728 39.8617 33.4645 38.8402 33.6754 37.8548C33.8863 36.8693 34.4068 35.9641 35.1711 35.2537C35.9354 34.5432 36.9092 34.0594 37.9693 33.8634C39.0295 33.6673 40.1283 33.7679 41.127 34.1525C42.1256 34.5369 42.9791 35.1881 43.5797 36.0235C44.1802 36.8589 44.5007 37.8411 44.5007 38.8459C44.5007 40.1932 43.9249 41.4853 42.9 42.438C41.8751 43.3907 40.485 43.926 39.0355 43.926ZM39.0355 36.89C38.6254 36.8925 38.2252 37.0079 37.8855 37.2215C37.5458 37.4352 37.2817 37.7375 37.1266 38.0905C36.9715 38.4434 36.9324 38.8312 37.014 39.2048C37.0957 39.5784 37.2946 39.9212 37.5855 40.1899C37.8765 40.4586 38.2466 40.6412 38.649 40.7147C39.0515 40.7881 39.4684 40.7492 39.8471 40.6027C40.2257 40.4562 40.5493 40.2088 40.7769 39.8916C41.0045 39.5744 41.126 39.2017 41.126 38.8205C41.126 38.5659 41.0718 38.3138 40.9666 38.0788C40.8614 37.8437 40.7072 37.6303 40.5129 37.4509C40.3186 37.2715 40.088 37.1296 39.8345 37.0333C39.5809 36.937 39.3094 36.8883 39.0355 36.89Z" fill="black"/>
<path d="M39.0355 36.89H16.2732C14.8636 36.89 13.5117 36.3695 12.515 35.443C11.5183 34.5165 10.9583 33.2599 10.9583 31.9496C10.9583 30.6393 11.5183 29.3827 12.515 28.4562C13.5117 27.5297 14.8636 27.0092 16.2732 27.0092H19.8938C20.3468 27.0092 20.7812 27.1765 21.1015 27.4742C21.4218 27.7719 21.6017 28.1757 21.6017 28.5967C21.6017 29.0178 21.4218 29.4216 21.1015 29.7193C20.7812 30.017 20.3468 30.1843 19.8938 30.1843H16.2732C15.7695 30.1843 15.2864 30.3703 14.9303 30.7013C14.5741 31.0324 14.374 31.4814 14.374 31.9496C14.374 32.4178 14.5741 32.8668 14.9303 33.1979C15.2864 33.529 15.7695 33.715 16.2732 33.715H39.0355C39.4885 33.715 39.9229 33.8822 40.2432 34.1799C40.5635 34.4776 40.7434 34.8814 40.7434 35.3025C40.7434 35.7235 40.5635 36.1273 40.2432 36.425C39.9229 36.7228 39.4885 36.89 39.0355 36.89Z" fill="black"/>
<path d="M37.0408 30.1843L37.0422 30.0743H37.0408V30.1843ZM13.1717 25.1931L13.2784 25.1662L13.278 25.1649L13.1717 25.1931ZM10.4391 14.8678L10.3327 14.8957L10.3328 14.8959L10.4391 14.8678ZM17.2706 6.84119L17.2699 6.95119H17.2706V6.84119ZM39.8143 6.84119V6.95119L39.815 6.95118L39.8143 6.84119ZM46.6458 14.8678L46.7521 14.8958L46.7522 14.8957L46.6458 14.8678ZM43.9132 25.2185L43.8068 25.1904L43.8067 25.191L43.9132 25.2185ZM17.1886 10.0163V9.90625L17.1883 9.90625L17.1886 10.0163ZM13.7182 14.1184L13.6117 14.1459L13.6119 14.1465L13.7182 14.1184ZM16.4508 24.4692L16.5574 24.442L16.5571 24.4411L16.4508 24.4692ZM19.9212 27.0092V26.8992L19.9208 26.8992L19.9212 27.0092ZM37.0408 27.0092L37.0412 26.8992H37.0408V27.0092ZM40.5111 24.4692L40.4048 24.4411L40.4045 24.442L40.5111 24.4692ZM43.2437 14.1184L43.3501 14.1465L43.3501 14.1464L43.2437 14.1184ZM39.7733 10.0163V10.1263H39.7735L39.7733 10.0163ZM12.4339 17.5729L12.4327 17.6829L12.4401 17.683L12.4474 17.6821L12.4339 17.5729ZM10.7807 16.3029L10.8882 16.2793L10.8875 16.2764L10.7807 16.3029ZM8.33504 6.43478L8.44181 6.40832L8.44173 6.40798L8.33504 6.43478ZM4.0449 3.28511V3.39511L4.04535 3.39511L4.0449 3.28511ZM0.109985 1.69758H-1.46553e-05H0.109985ZM4.0449 0.110045V0.220045L4.04525 0.220044L4.0449 0.110045ZM11.6688 5.71086L11.7756 5.68454L11.7755 5.68403L11.6688 5.71086ZM14.1008 15.579L13.994 15.6053L13.9943 15.6066L14.1008 15.579ZM12.8301 17.484L12.8072 17.3757L12.7956 17.3796L12.8301 17.484ZM41.126 38.8205L41.236 38.8205L41.126 38.8205ZM16.2732 36.89V37V36.89ZM19.8938 27.0092V26.8992V27.0092ZM16.2732 30.1843V30.2943V30.1843ZM14.374 31.9496H14.264H14.374ZM37.0408 30.0743H19.8938V30.2943H37.0408V30.0743ZM19.8946 30.0743C18.3568 30.0641 16.8683 29.5735 15.6684 28.6826L15.5372 28.8592C16.7758 29.7788 18.31 30.2838 19.8931 30.2943L19.8946 30.0743ZM15.6684 28.6826C14.4686 27.7917 13.6275 26.5528 13.2784 25.1662L13.065 25.2199C13.4271 26.658 14.2985 27.9395 15.5372 28.8592L15.6684 28.6826ZM13.278 25.1649L10.5455 14.8396L10.3328 14.8959L13.0654 25.2212L13.278 25.1649ZM10.5455 14.8399C10.2987 13.8985 10.286 12.9173 10.5085 11.9707L10.2944 11.9204C10.0636 12.9019 10.0768 13.9196 10.3327 14.8957L10.5455 14.8399ZM10.5085 11.9707C10.731 11.0241 11.183 10.1365 11.8306 9.37555L11.6631 9.23296C10.9934 10.0198 10.5251 10.9389 10.2944 11.9204L10.5085 11.9707ZM11.8306 9.37555C12.4783 8.61456 13.3047 8.00026 14.2473 7.57992L14.1578 7.379C13.1861 7.81228 12.3327 8.44615 11.6631 9.23296L11.8306 9.37555ZM14.2473 7.57992C15.19 7.15958 16.2237 6.94446 17.2699 6.95118L17.2713 6.73119C16.1942 6.72426 15.1294 6.94572 14.1578 7.379L14.2473 7.57992ZM17.2706 6.95119H39.8143V6.73119H17.2706V6.95119ZM39.815 6.95118C40.8611 6.94446 41.8949 7.15958 42.8375 7.57992L42.9271 7.379C41.9555 6.94572 40.8907 6.72426 39.8136 6.73119L39.815 6.95118ZM42.8375 7.57992C43.7802 8.00026 44.6066 8.61456 45.2543 9.37555L45.4218 9.23296C44.7521 8.44615 43.8988 7.81228 42.9271 7.379L42.8375 7.57992ZM45.2543 9.37555C45.9019 10.1365 46.3539 11.0241 46.5764 11.9707L46.7905 11.9204C46.5598 10.9389 46.0915 10.0198 45.4218 9.23296L45.2543 9.37555ZM46.5764 11.9707C46.7989 12.9173 46.7862 13.8985 46.5394 14.8399L46.7522 14.8957C47.0081 13.9196 47.0213 12.9019 46.7905 11.9204L46.5764 11.9707ZM46.5394 14.8397L43.8068 25.1904L44.0195 25.2465L46.7521 14.8958L46.5394 14.8397ZM43.8067 25.191C43.4444 26.595 42.5785 27.8443 41.3493 28.7324L41.4782 28.9108C42.747 27.994 43.644 26.7019 44.0197 25.246L43.8067 25.191ZM41.3493 28.7324C40.12 29.6207 38.6011 30.0944 37.0422 30.0743L37.0393 30.2943C38.6441 30.3149 40.2095 29.8275 41.4782 28.9108L41.3493 28.7324ZM17.1883 9.90625C16.6329 9.90783 16.0848 10.0262 15.585 10.2527L15.6759 10.4531C16.1469 10.2396 16.6642 10.1277 17.1889 10.1263L17.1883 9.90625ZM15.585 10.2527C15.0852 10.4793 14.6464 10.8084 14.3017 11.2158L14.4696 11.3579C14.7926 10.9761 15.2048 10.6666 15.6759 10.4531L15.585 10.2527ZM14.3017 11.2158C13.957 11.6233 13.7154 12.0986 13.5957 12.6063L13.8099 12.6568C13.9214 12.1837 14.1467 11.7396 14.4696 11.3579L14.3017 11.2158ZM13.5957 12.6063C13.476 13.114 13.4815 13.6404 13.6117 14.1459L13.8247 14.091C13.7034 13.62 13.6984 13.1298 13.8099 12.6568L13.5957 12.6063ZM13.6119 14.1465L16.3444 24.4972L16.5571 24.4411L13.8246 14.0904L13.6119 14.1465ZM16.3442 24.4963C16.5359 25.2476 16.9949 25.9147 17.6447 26.3903L17.7746 26.2127C17.1641 25.7659 16.7358 25.1415 16.5574 24.442L16.3442 24.4963ZM17.6447 26.3903C18.2943 26.8657 19.0968 27.1222 19.9216 27.1192L19.9208 26.8992C19.1416 26.902 18.3852 26.6597 17.7746 26.2127L17.6447 26.3903ZM19.9212 27.1192H37.0408V26.8992H19.9212V27.1192ZM37.0404 27.1192C37.8652 27.1222 38.6677 26.8657 39.3173 26.3903L39.1873 26.2127C38.5767 26.6597 37.8203 26.902 37.0412 26.8992L37.0404 27.1192ZM39.3173 26.3903C39.967 25.9147 40.4261 25.2476 40.6177 24.4963L40.4045 24.442C40.2261 25.1415 39.7978 25.7659 39.1873 26.2127L39.3173 26.3903ZM40.6175 24.4972L43.3501 14.1465L43.1374 14.0904L40.4048 24.4411L40.6175 24.4972ZM43.3501 14.1464C43.4831 13.6407 43.4907 13.1133 43.3721 12.6045L43.1579 12.6544C43.2683 13.1283 43.2613 13.6193 43.1373 14.0905L43.3501 14.1464ZM43.3721 12.6045C43.2536 12.0956 43.0122 11.6192 42.6669 11.211L42.4989 11.3531C42.8223 11.7353 43.0474 12.1804 43.1579 12.6544L43.3721 12.6045ZM42.6669 11.211C42.3216 10.8028 41.8815 10.4736 41.3802 10.2478L41.2899 10.4484C41.7622 10.6612 42.1755 10.9707 42.4989 11.3531L42.6669 11.211ZM41.3802 10.2478C40.879 10.022 40.3295 9.90532 39.7732 9.90625L39.7735 10.1263C40.299 10.1254 40.8176 10.2356 41.2899 10.4484L41.3802 10.2478ZM39.7733 9.90625H17.1886V10.1263H39.7733V9.90625ZM12.4351 17.4629C12.068 17.4589 11.7144 17.3381 11.4331 17.122L11.2991 17.2964C11.6193 17.5425 12.0194 17.6784 12.4327 17.6829L12.4351 17.4629ZM11.4331 17.122C11.1519 16.906 10.9603 16.6082 10.8881 16.2793L10.6733 16.3265C10.7571 16.7083 10.9787 17.0503 11.2991 17.2964L11.4331 17.122ZM10.8875 16.2764L8.44181 6.40832L8.22827 6.46124L10.6739 16.3293L10.8875 16.2764ZM8.44173 6.40798C8.20937 5.48306 7.64661 4.66052 6.8476 4.07391L6.7174 4.25125C7.47707 4.80897 8.00905 5.5886 8.22836 6.46158L8.44173 6.40798ZM6.8476 4.07391C6.04871 3.4874 5.06042 3.17096 4.04445 3.17511L4.04535 3.39511C5.01555 3.39115 5.95761 3.69344 6.7174 4.25125L6.8476 4.07391ZM4.0449 3.17511H1.81785V3.39511H4.0449V3.17511ZM1.81785 3.17511C1.39158 3.17511 0.984242 3.01763 0.685098 2.73957L0.535314 2.9007C0.876742 3.21807 1.33821 3.39511 1.81785 3.39511V3.17511ZM0.685098 2.73957C0.386225 2.46175 0.219985 2.08674 0.219985 1.69758H-1.46553e-05C-1.46553e-05 2.15049 0.193615 2.58308 0.535314 2.9007L0.685098 2.73957ZM0.219985 1.69758C0.219985 1.30841 0.386225 0.933407 0.685098 0.655591L0.535314 0.494454C0.193615 0.812079 -1.46553e-05 1.24466 -1.46553e-05 1.69758H0.219985ZM0.685098 0.655591C0.984242 0.377523 1.39158 0.220045 1.81785 0.220045V4.48823e-05C1.33821 4.48823e-05 0.876742 0.177082 0.535314 0.494454L0.685098 0.655591ZM1.81785 0.220045H4.0449V4.48823e-05H1.81785V0.220045ZM4.04525 0.220044C5.78736 0.214387 7.47918 0.758062 8.84438 1.761L8.97463 1.5837C7.57037 0.552074 5.83237 -0.00576004 4.04454 4.54634e-05L4.04525 0.220044ZM8.84438 1.761C10.2095 2.76384 11.1668 4.16609 11.5621 5.73769L11.7755 5.68403C11.3671 4.06054 10.379 2.61542 8.97463 1.5837L8.84438 1.761ZM11.562 5.73718L13.994 15.6053L14.2076 15.5526L11.7756 5.68454L11.562 5.73718ZM13.9943 15.6066C14.043 15.7942 14.0512 15.9888 14.0183 16.1792L14.2351 16.2167C14.2733 15.9953 14.2638 15.7691 14.2072 15.5513L13.9943 15.6066ZM14.0183 16.1792C13.9854 16.3697 13.9121 16.5526 13.8023 16.7173L13.9853 16.8394C14.1119 16.6496 14.1969 16.438 14.2351 16.2167L14.0183 16.1792ZM13.8023 16.7173C13.6924 16.882 13.5481 17.0254 13.3773 17.1387L13.4989 17.322C13.6933 17.193 13.8588 17.0291 13.9853 16.8394L13.8023 16.7173ZM13.3773 17.1387C13.2065 17.252 13.0128 17.3329 12.8073 17.3764L12.8529 17.5916C13.0849 17.5425 13.3045 17.451 13.4989 17.322L13.3773 17.1387ZM12.7956 17.3796C12.6741 17.4197 12.5484 17.4479 12.4204 17.4637L12.4474 17.6821C12.5896 17.6645 12.7294 17.6331 12.8646 17.5885L12.7956 17.3796ZM20.1534 43.816C19.0926 43.816 18.0561 43.5235 17.1752 42.9764L17.0591 43.1633C17.9757 43.7325 19.0525 44.036 20.1534 44.036V43.816ZM17.1752 42.9764C16.2943 42.4293 15.6091 41.6525 15.2048 40.7452L15.0038 40.8347C15.4268 41.7839 16.1425 42.5939 17.0591 43.1633L17.1752 42.9764ZM15.2048 40.7452C14.8005 39.838 14.6949 38.8403 14.9009 37.8778L14.6857 37.8318C14.4699 38.8402 14.5808 39.8854 15.0038 40.8347L15.2048 40.7452ZM14.9009 37.8778C15.1068 36.9153 15.6155 36.0299 16.3639 35.3342L16.2141 35.1731C15.4339 35.8984 14.9015 36.8234 14.6857 37.8318L14.9009 37.8778ZM16.3639 35.3342C17.1124 34.6385 18.0669 34.1639 19.1072 33.9715L19.0672 33.7552C17.9873 33.9549 16.9942 34.4479 16.2141 35.1731L16.3639 35.3342ZM19.1072 33.9715C20.1476 33.7792 21.2258 33.878 22.2053 34.2551L22.2844 34.0498C21.2667 33.6579 20.1472 33.5555 19.0672 33.7552L19.1072 33.9715ZM22.2053 34.2551C23.1848 34.6322 24.0207 35.2704 24.6082 36.0877L24.7869 35.9593C24.1733 35.1058 23.3022 34.4417 22.2844 34.0498L22.2053 34.2551ZM24.6082 36.0877C25.1956 36.9049 25.5086 37.8647 25.5086 38.8459H25.7286C25.7286 37.8175 25.4005 36.8129 24.7869 35.9593L24.6082 36.0877ZM25.5086 38.8459C25.5086 40.1613 24.9465 41.4247 23.943 42.3575L24.0928 42.5186C25.1391 41.546 25.7286 40.2251 25.7286 38.8459H25.5086ZM23.943 42.3575C22.9392 43.2905 21.5762 43.816 20.1534 43.816V44.036C21.6296 44.036 23.0467 43.491 24.0928 42.5186L23.943 42.3575ZM20.1534 36.78C19.7227 36.78 19.301 36.8987 18.9416 37.1219L19.0577 37.3088C19.3814 37.1077 19.7627 37 20.1534 37V36.78ZM18.9416 37.1219C18.5822 37.3451 18.3008 37.6632 18.1343 38.0369L18.3352 38.1265C18.4831 37.7947 18.7341 37.5098 19.0577 37.3088L18.9416 37.1219ZM18.1343 38.0369C17.9677 38.4108 17.924 38.8226 18.009 39.2201L18.2241 39.174C18.1489 38.8226 18.1874 38.4581 18.3352 38.1265L18.1343 38.0369ZM18.009 39.2201C18.0941 39.6175 18.3037 39.9813 18.6101 40.2661L18.7598 40.1049C18.4853 39.8497 18.2994 39.5256 18.2241 39.174L18.009 39.2201ZM18.6101 40.2661C18.9163 40.5507 19.3056 40.7438 19.7283 40.822L19.7683 40.6056C19.3853 40.5348 19.0344 40.3602 18.7598 40.1049L18.6101 40.2661ZM19.7283 40.822C20.1509 40.9001 20.5891 40.8601 20.9877 40.7066L20.9087 40.5013C20.5483 40.64 20.1513 40.6765 19.7683 40.6056L19.7283 40.822ZM20.9877 40.7066C21.3863 40.5531 21.7283 40.2927 21.9695 39.9572L21.7909 39.8287C21.5757 40.1281 21.269 40.3626 20.9087 40.5013L20.9877 40.7066ZM21.9695 39.9572C22.2108 39.6215 22.3402 39.2259 22.3402 38.8205H22.1202C22.1202 39.1786 22.006 39.5295 21.7909 39.8287L21.9695 39.9572ZM22.3402 38.8205C22.3402 38.2766 22.1077 37.7568 21.6968 37.3749L21.547 37.536C21.9151 37.8781 22.1202 38.3403 22.1202 38.8205H22.3402ZM21.6968 37.3749C21.2862 36.9932 20.7309 36.78 20.1534 36.78V37C20.6775 37 21.1787 37.1936 21.547 37.536L21.6968 37.3749ZM39.0355 43.816C37.9747 43.816 36.9382 43.5235 36.0573 42.9764L35.9412 43.1633C36.8578 43.7325 37.9346 44.036 39.0355 44.036V43.816ZM36.0573 42.9764C35.1764 42.4293 34.4912 41.6525 34.0869 40.7452L33.8859 40.8347C34.3089 41.7839 35.0246 42.5939 35.9412 43.1633L36.0573 42.9764ZM34.0869 40.7452C33.6826 39.838 33.577 38.8403 33.783 37.8778L33.5678 37.8318C33.352 38.8402 33.4629 39.8854 33.8859 40.8347L34.0869 40.7452ZM33.783 37.8778C33.9889 36.9153 34.4976 36.0299 35.246 35.3342L35.0962 35.1731C34.316 35.8984 33.7836 36.8234 33.5678 37.8318L33.783 37.8778ZM35.246 35.3342C35.9945 34.6385 36.949 34.1639 37.9893 33.9715L37.9493 33.7552C36.8694 33.9549 35.8763 34.4479 35.0962 35.1731L35.246 35.3342ZM37.9893 33.9715C39.0297 33.7792 40.1079 33.878 41.0874 34.2551L41.1665 34.0498C40.1488 33.6579 39.0293 33.5555 37.9493 33.7552L37.9893 33.9715ZM41.0874 34.2551C42.0669 34.6322 42.9028 35.2704 43.4903 36.0877L43.669 35.9593C43.0554 35.1058 42.1843 34.4417 41.1665 34.0498L41.0874 34.2551ZM43.4903 36.0877C44.0777 36.9049 44.3907 37.8647 44.3907 38.8459H44.6107C44.6107 37.8175 44.2826 36.8129 43.669 35.9593L43.4903 36.0877ZM44.3907 38.8459C44.3907 40.1613 43.8286 41.4247 42.8251 42.3575L42.9749 42.5186C44.0212 41.546 44.6107 40.2251 44.6107 38.8459H44.3907ZM42.8251 42.3575C41.8213 43.2905 40.4583 43.816 39.0355 43.816V44.036C40.5117 44.036 41.9288 43.491 42.9749 42.5186L42.8251 42.3575ZM39.0349 36.78C38.6047 36.7826 38.1844 36.9036 37.8269 37.1284L37.9441 37.3146C38.266 37.1121 38.6461 37.0024 39.0362 37L39.0349 36.78ZM37.8269 37.1284C37.4694 37.3532 37.1902 37.6723 37.0259 38.0462L37.2273 38.1347C37.3732 37.8028 37.6222 37.5171 37.9441 37.3146L37.8269 37.1284ZM37.0259 38.0462C36.8616 38.4203 36.8199 38.8317 36.9066 39.2283L37.1215 39.1813C37.0448 38.8306 37.0815 38.4666 37.2273 38.1347L37.0259 38.0462ZM36.9066 39.2283C36.9932 39.6247 37.204 39.9873 37.5109 40.2707L37.6602 40.1091C37.3851 39.8551 37.1982 39.5321 37.1215 39.1813L36.9066 39.2283ZM37.5109 40.2707C37.8177 40.5541 38.207 40.7458 38.6293 40.8229L38.6688 40.6065C38.2861 40.5366 37.9353 40.3632 37.6602 40.1091L37.5109 40.2707ZM38.6293 40.8229C39.0516 40.9 39.489 40.8591 39.8868 40.7053L39.8074 40.5001C39.4478 40.6392 39.0515 40.6763 38.6688 40.6065L38.6293 40.8229ZM39.8868 40.7053C40.2845 40.5514 40.6257 40.291 40.8663 39.9557L40.6875 39.8275C40.4729 40.1266 40.167 40.361 39.8074 40.5001L39.8868 40.7053ZM40.8663 39.9557C41.1069 39.6204 41.236 39.2253 41.236 38.8205L41.016 38.8205C41.016 39.1781 40.9021 39.5285 40.6875 39.8275L40.8663 39.9557ZM41.236 38.8205C41.236 38.5502 41.1785 38.2828 41.067 38.0338L40.8662 38.1237C40.9651 38.3448 41.016 38.5815 41.016 38.8205L41.236 38.8205ZM41.067 38.0338C40.9555 37.7848 40.7924 37.5593 40.5875 37.3701L40.4382 37.5317C40.6219 37.7013 40.7672 37.9026 40.8662 38.1237L41.067 38.0338ZM40.5875 37.3701C40.3826 37.1809 40.1399 37.0316 39.8735 36.9305L39.7954 37.1361C40.0362 37.2275 40.2546 37.3621 40.4382 37.5317L40.5875 37.3701ZM39.8735 36.9305C39.6072 36.8293 39.3222 36.7783 39.0349 36.78L39.0362 37C39.2967 36.9984 39.5547 37.0447 39.7954 37.1361L39.8735 36.9305ZM39.0355 36.78H16.2732V37H39.0355V36.78ZM16.2732 36.78C14.8903 36.78 13.5655 36.2693 12.5899 35.3624L12.4401 35.5236C13.458 36.4697 14.8369 37 16.2732 37V36.78ZM12.5899 35.3624C11.6146 34.4558 11.0683 33.228 11.0683 31.9496H10.8483C10.8483 33.2918 11.422 34.5772 12.4401 35.5236L12.5899 35.3624ZM11.0683 31.9496C11.0683 30.6712 11.6146 29.4434 12.5899 28.5368L12.4401 28.3757C11.422 29.3221 10.8483 30.6075 10.8483 31.9496H11.0683ZM12.5899 28.5368C13.5655 27.6299 14.8903 27.1192 16.2732 27.1192V26.8992C14.8369 26.8992 13.458 27.4295 12.4401 28.3757L12.5899 28.5368ZM16.2732 27.1192H19.8938V26.8992H16.2732V27.1192ZM19.8938 27.1192C20.3201 27.1192 20.7274 27.2767 21.0266 27.5548L21.1764 27.3936C20.8349 27.0762 20.3735 26.8992 19.8938 26.8992V27.1192ZM21.0266 27.5548C21.3255 27.8326 21.4917 28.2076 21.4917 28.5967H21.7117C21.7117 28.1438 21.5181 27.7112 21.1764 27.3936L21.0266 27.5548ZM21.4917 28.5967C21.4917 28.9859 21.3255 29.3609 21.0266 29.6387L21.1764 29.7999C21.5181 29.4822 21.7117 29.0497 21.7117 28.5967H21.4917ZM21.0266 29.6387C20.7274 29.9168 20.3201 30.0743 19.8938 30.0743V30.2943C20.3735 30.2943 20.8349 30.1172 21.1764 29.7999L21.0266 29.6387ZM19.8938 30.0743H16.2732V30.2943H19.8938V30.0743ZM16.2732 30.0743C15.7428 30.0743 15.2327 30.27 14.8554 30.6208L15.0052 30.7819C15.3402 30.4705 15.7962 30.2943 16.2732 30.2943V30.0743ZM14.8554 30.6208C14.4778 30.9717 14.264 31.4495 14.264 31.9496H14.484C14.484 31.5133 14.6704 31.0931 15.0052 30.7819L14.8554 30.6208ZM14.264 31.9496C14.264 32.4497 14.4778 32.9275 14.8554 33.2785L15.0052 33.1173C14.6704 32.8062 14.484 32.3859 14.484 31.9496H14.264ZM14.8554 33.2785C15.2327 33.6292 15.7428 33.8249 16.2732 33.8249V33.6049C15.7962 33.6049 15.3402 33.4287 15.0052 33.1173L14.8554 33.2785ZM16.2732 33.8249H39.0355V33.6049H16.2732V33.8249ZM39.0355 33.8249C39.4618 33.8249 39.8691 33.9824 40.1683 34.2605L40.3181 34.0994C39.9766 33.782 39.5152 33.6049 39.0355 33.6049V33.8249ZM40.1683 34.2605C40.4672 34.5383 40.6334 34.9133 40.6334 35.3025H40.8534C40.8534 34.8496 40.6598 34.417 40.3181 34.0994L40.1683 34.2605ZM40.6334 35.3025C40.6334 35.6916 40.4672 36.0667 40.1683 36.3445L40.3181 36.5056C40.6598 36.188 40.8534 35.7554 40.8534 35.3025H40.6334ZM40.1683 36.3445C39.8691 36.6225 39.4618 36.78 39.0355 36.78V37C39.5152 37 39.9766 36.823 40.3181 36.5056L40.1683 36.3445Z" fill="black" mask="url(#path-1-outside-1_51_555)"/>
</svg>
