<svg width="33" height="33" viewBox="0 0 33 33" fill="none" xmlns="http://www.w3.org/2000/svg">
<path fill-rule="evenodd" clip-rule="evenodd" d="M32.4 16.2C32.4 25.147 25.147 32.4 16.2 32.4C7.25299 32.4 0 25.147 0 16.2C0 7.25299 7.25299 0 16.2 0C25.147 0 32.4 7.25299 32.4 16.2ZM9.73939 11.8607C9.1536 11.2749 9.1536 10.3252 9.73939 9.73939C10.3252 9.1536 11.2749 9.1536 11.8607 9.73939L16.2 14.0787L20.5393 9.73939C21.1251 9.1536 22.0748 9.1536 22.6606 9.73939C23.2464 10.3252 23.2464 11.2749 22.6606 11.8607L18.3213 16.2L22.6607 20.5393C23.2464 21.1251 23.2464 22.0749 22.6607 22.6607C22.0749 23.2464 21.1251 23.2464 20.5393 22.6607L16.2 18.3213L11.8607 22.6607C11.2749 23.2464 10.3251 23.2464 9.73934 22.6607C9.15355 22.0749 9.15355 21.1251 9.73934 20.5393L14.0787 16.2L9.73939 11.8607Z" fill="#C4C4C4"/>
</svg>
