<svg width="50" height="50" viewBox="0 0 50 50" fill="none" xmlns="http://www.w3.org/2000/svg">
<g clip-path="url(#clip0_51_402)">
<path d="M38.3179 18.6624H43.5602L47.4094 24.191H37.6906L38.3179 18.6624ZM36.6087 16.9434L34.7355 33.4527H37.031C37.031 33.4518 37.031 33.4513 37.031 33.4503C37.176 32.1742 37.8218 30.9504 38.8266 30.0484C39.831 29.146 41.1124 28.6392 42.3885 28.6392C43.6646 28.6392 44.8309 29.146 45.6309 30.0484C46.4309 30.9504 46.7991 32.1742 46.6542 33.4503C46.6542 33.4513 46.6538 33.4518 46.6538 33.4527H48.9494L50.0001 24.191L44.9544 16.9434H36.6087Z" fill="black"/>
<path d="M8.02513 12.4233L7.73971 14.9394H12.2859C12.7703 14.9394 13.1158 15.3291 13.0605 15.8129C13.006 16.2973 12.5719 16.6871 12.0875 16.6871H3.89648C3.4121 16.6871 2.97838 17.0769 2.9233 17.5612C2.86861 18.0451 3.21406 18.4348 3.69791 18.4348H17.8927C18.3766 18.4348 18.7224 18.8246 18.6673 19.309C18.6126 19.7934 18.1785 20.1826 17.6941 20.1826H6.45729C5.97291 20.1826 5.53932 20.5728 5.48424 21.0568C5.42903 21.5412 5.77486 21.9309 6.25885 21.9309H12.5523C13.0362 21.9309 13.3815 22.3206 13.3269 22.805C13.2719 23.2888 12.8381 23.6787 12.3538 23.6787H1.02864C0.544265 23.6787 0.110151 24.0684 0.0555935 24.5528C0.000385206 25.0366 0.346219 25.4269 0.830203 25.4269H6.54999L5.63932 33.453H9.87135C9.87135 33.4521 9.87135 33.4516 9.87135 33.4506C10.0163 32.1745 10.6621 30.9512 11.6665 30.0487C12.6713 29.1463 13.9527 28.6395 15.2289 28.6395C16.5049 28.6395 17.6712 29.1463 18.4712 30.0487C19.2712 30.9507 19.6389 32.1745 19.4941 33.4506C19.4941 33.4516 19.4941 33.4521 19.4941 33.453H34.2937L36.6801 12.4233H8.02513Z" fill="black"/>
<path d="M42.0729 31.4188C42.612 31.4188 43.1042 31.6325 43.4422 32.014C43.7802 32.3949 43.9354 32.9119 43.8744 33.4505C43.8134 33.9895 43.5408 34.5066 43.1164 34.8876C42.6919 35.2686 42.1505 35.4826 41.612 35.4826C40.4896 35.4826 39.6828 34.5729 39.8102 33.4505C39.8716 32.9119 40.1443 32.3949 40.5686 32.014C40.993 31.6325 41.534 31.4188 42.0729 31.4188ZM42.312 29.3115C41.2139 29.3115 40.112 29.7477 39.2477 30.5243C38.3833 31.3003 37.8277 32.3529 37.7033 33.4505C37.5789 34.5485 37.8954 35.6012 38.5837 36.3773C39.2716 37.1533 40.275 37.5894 41.3725 37.5894C42.4706 37.5894 43.5724 37.1533 44.4369 36.3773C45.3012 35.6012 45.8568 34.5485 45.9811 33.4505C46.1056 32.3529 45.7889 31.3003 45.1012 30.5243C44.4129 29.7477 43.4095 29.3115 42.312 29.3115Z" fill="black"/>
<path d="M14.9136 31.4188C15.4525 31.4188 15.9452 31.6325 16.2832 32.014C16.6209 32.3949 16.7765 32.9119 16.7154 33.4505C16.6539 33.9895 16.3813 34.5066 15.9569 34.8876C15.5326 35.2686 14.9916 35.4826 14.4526 35.4826C13.3301 35.4826 12.5239 34.5729 12.6512 33.4505C12.7121 32.9119 12.9848 32.3949 13.4091 32.014C13.8336 31.6325 14.375 31.4188 14.9136 31.4188ZM15.1525 29.3115C14.055 29.3115 12.9526 29.7477 12.0887 30.5243C11.2244 31.3003 10.6688 32.3529 10.5444 33.4505C10.4194 34.5485 10.7361 35.6012 11.4244 36.3773C12.1127 37.1533 13.116 37.5894 14.2136 37.5894C15.3111 37.5894 16.4134 37.1533 17.2779 36.3773C18.1422 35.6012 18.6973 34.5485 18.8222 33.4505C18.9466 32.3529 18.63 31.3003 17.9417 30.5243C17.2539 29.7477 16.2506 29.3115 15.1525 29.3115Z" fill="black"/>
<path d="M15.4018 33.4504C15.3803 33.6412 15.2837 33.8241 15.134 33.9588C14.9837 34.0939 14.792 34.1694 14.6018 34.1694C14.411 34.1694 14.237 34.0939 14.1174 33.9588C13.9974 33.8241 13.9428 33.6412 13.9643 33.4504C14.0091 33.0534 14.3677 32.7319 14.7647 32.7319C15.1618 32.7319 15.4471 33.0534 15.4018 33.4504Z" fill="black"/>
<path d="M42.5613 33.4504C42.5395 33.6412 42.4434 33.8241 42.2931 33.9588C42.1429 34.0939 41.9517 34.1694 41.761 34.1694C41.5702 34.1694 41.3961 34.0939 41.2766 33.9588C41.157 33.8241 41.102 33.6412 41.1238 33.4504C41.1688 33.0534 41.5268 32.7319 41.9238 32.7319C42.3208 32.7319 42.6063 33.0534 42.5613 33.4504Z" fill="black"/>
</g>
<defs>
<clipPath id="clip0_51_402">
<rect width="50" height="50" fill="white"/>
</clipPath>
</defs>
</svg>
