<svg width="50" height="50" viewBox="0 0 50 50" fill="none" xmlns="http://www.w3.org/2000/svg">
<path d="M40.625 7.8125H9.375C8.5462 7.8125 7.75134 8.14174 7.16529 8.72779C6.57924 9.31384 6.25 10.1087 6.25 10.9375V21.875C6.25 32.1719 11.2344 38.4121 15.416 41.834C19.9199 45.5176 24.4004 46.7676 24.5957 46.8203C24.8643 46.8934 25.1475 46.8934 25.416 46.8203C25.6113 46.7676 30.0859 45.5176 34.5957 41.834C38.7656 38.4121 43.75 32.1719 43.75 21.875V10.9375C43.75 10.1087 43.4208 9.31384 42.8347 8.72779C42.2487 8.14174 41.4538 7.8125 40.625 7.8125ZM33.9219 21.418L22.9844 32.3555C22.8393 32.5007 22.6669 32.616 22.4773 32.6946C22.2876 32.7733 22.0842 32.8137 21.8789 32.8137C21.6736 32.8137 21.4702 32.7733 21.2806 32.6946C21.0909 32.616 20.9186 32.5007 20.7734 32.3555L16.0859 27.668C15.7927 27.3748 15.628 26.9771 15.628 26.5625C15.628 26.1479 15.7927 25.7502 16.0859 25.457C16.3791 25.1638 16.7768 24.9991 17.1914 24.9991C17.606 24.9991 18.0037 25.1638 18.2969 25.457L21.875 29.041L31.707 19.207C31.8522 19.0619 32.0245 18.9467 32.2142 18.8681C32.4039 18.7896 32.6072 18.7491 32.8125 18.7491C33.0178 18.7491 33.2211 18.7896 33.4108 18.8681C33.6005 18.9467 33.7728 19.0619 33.918 19.207C34.0631 19.3522 34.1783 19.5245 34.2569 19.7142C34.3354 19.9039 34.3759 20.1072 34.3759 20.3125C34.3759 20.5178 34.3354 20.7211 34.2569 20.9108C34.1783 21.1005 34.0631 21.2728 33.918 21.418H33.9219Z" fill="black"/>
</svg>
