<svg width="50" height="50" viewBox="0 0 50 50" fill="none" xmlns="http://www.w3.org/2000/svg">
<mask id="mask0_51_388" style="mask-type:luminance" maskUnits="userSpaceOnUse" x="0" y="6" width="50" height="38">
<path d="M0 6.95459H50V43.0546H0V6.95459Z" fill="white"/>
</mask>
<g mask="url(#mask0_51_388)">
<path d="M44.4339 6.95459H20.8361V22.2237H49.9863V12.5069C49.9863 9.44066 47.5002 6.95459 44.4339 6.95459ZM20.8361 43.0452H44.4339C47.5002 43.0452 49.9863 40.5592 49.9863 36.7987V27.7761H20.8361V43.0452ZM0.0146484 27.7761V36.7987C0.0146484 40.5592 2.50072 43.0452 5.56699 43.0452H15.2838V27.7761H0.0146484ZM15.2838 6.95459H5.56699C2.50072 6.95459 0.0146484 9.44066 0.0146484 12.5069V22.2237H15.2838V6.95459Z" fill="black"/>
<path d="M20.8361 6.95459H15.2838V22.2237H0.0146484V27.7761H15.2838V43.0452H20.8361V27.7761H49.9863V22.2237H20.8361V6.95459Z" fill="#F5F5DC"/>
</g>
</svg>
