<svg width="50" height="50" viewBox="0 0 50 50" fill="none" xmlns="http://www.w3.org/2000/svg">
<g clip-path="url(#clip0_51_413)">
<mask id="mask0_51_413" style="mask-type:luminance" maskUnits="userSpaceOnUse" x="0" y="0" width="50" height="50">
<path d="M0.233276 0.233398H49.7583V49.7584H0.233276V0.233398Z" fill="white"/>
</mask>
<g mask="url(#mask0_51_413)">
<path d="M24.9958 0.233398C11.3206 0.233398 0.233276 11.3208 0.233276 24.9959C0.233276 36.0152 7.43705 45.3445 17.3874 48.5554C16.5023 41.9458 17.0161 34.158 19.7193 27.9984C22.6867 21.232 30.5798 17.398 30.5798 17.398C30.5798 17.398 21.7808 19.0695 17.3937 26.3826C15.066 30.26 13.7743 37.113 13.7743 37.113C13.7743 37.113 5.47885 25.9141 15.4333 16.5209C22.0821 10.2437 35.98 11.5148 39.8657 13.7558C34.7192 21.9212 37.7609 30.4437 32.1708 35.5736C26.0173 41.2195 19.2096 40.2579 19.2096 40.2579C19.2096 40.2579 19.0507 44.1042 20.8006 49.3745C22.1647 49.6098 23.5617 49.7584 24.9958 49.7584C38.6709 49.7584 49.7583 38.671 49.7583 24.9959C49.7583 11.3208 38.6709 0.233398 24.9958 0.233398Z" fill="black"/>
</g>
</g>
<defs>
<clipPath id="clip0_51_413">
<rect width="50" height="50" fill="white"/>
</clipPath>
</defs>
</svg>
