<svg width="22" height="22" viewBox="0 0 22 22" fill="none" xmlns="http://www.w3.org/2000/svg">
<path fill-rule="evenodd" clip-rule="evenodd" d="M14.5561 3.84049C13.6321 3.79979 13.3505 3.78989 11.0031 3.78989C8.64472 3.78989 8.37413 3.80089 7.44133 3.85039C6.58773 3.88009 6.12683 4.03079 5.80563 4.15069C5.42623 4.28952 5.08323 4.51254 4.80242 4.80299C4.50866 5.08731 4.28237 5.43388 4.14022 5.81719C4.01923 6.12739 3.87843 6.58939 3.83882 7.45179C3.78823 8.37579 3.78823 8.65629 3.78823 11.0048C3.78823 13.3522 3.79922 13.6338 3.83882 14.5567C3.84323 15.1177 3.94552 15.6743 4.14022 16.2012C4.29973 16.6027 4.49112 16.9041 4.80242 17.2055C5.11262 17.5157 5.39423 17.7071 5.81442 17.8677C6.33582 18.0613 6.88583 18.1625 7.44133 18.168C8.37413 18.2186 8.65462 18.2186 11.0031 18.2186C13.3505 18.2186 13.6321 18.2076 14.5561 18.168C15.4185 18.1284 15.8794 17.9876 16.1907 17.8677C16.6021 17.7071 16.9035 17.5058 17.2038 17.2055C17.5151 16.8942 17.6955 16.6027 17.866 16.1913C18.0607 15.6677 18.163 15.1144 18.1674 14.5567C18.2081 13.6327 18.218 13.3522 18.218 11.0037C18.218 8.65629 18.207 8.37469 18.1575 7.45179C18.1278 6.58939 17.9771 6.12739 17.8561 5.80729C17.7174 5.4275 17.4944 5.08412 17.2038 4.80299C16.9175 4.51275 16.5724 4.28699 16.1918 4.14079C15.8794 4.01979 15.4196 3.88009 14.5561 3.84049ZM7.36983 2.25429C8.31253 2.21469 8.61392 2.20479 11.002 2.20479C12.212 2.18939 13.4242 2.20589 14.6342 2.25429C15.3646 2.26969 16.0873 2.40829 16.7715 2.66569C17.3567 2.88829 17.8872 3.23418 18.3269 3.67989C18.7779 4.11659 19.1277 4.64789 19.3499 5.23529C19.6029 5.91949 19.7393 6.64219 19.7514 7.37149C19.8031 8.31529 19.8031 8.60569 19.8031 11.0048C19.8031 13.3918 19.7921 13.6932 19.7525 14.626C19.7129 15.5698 19.5622 16.2122 19.3411 16.7633C19.1211 17.3463 18.8197 17.8369 18.3291 18.3286C17.8907 18.7764 17.3594 19.1226 16.7726 19.3428C16.2116 19.5529 15.5681 19.7135 14.6353 19.7542C13.6926 19.7938 13.4011 19.8037 11.0031 19.8037C8.61503 19.8037 8.31362 19.7938 7.37092 19.7432C6.43703 19.7135 5.79573 19.5628 5.23363 19.3428C4.65118 19.1148 4.12177 18.7696 3.67823 18.3286C3.23232 17.8835 2.88393 17.3504 2.65523 16.7633C2.45393 16.2023 2.29333 15.5698 2.25373 14.626C2.21303 13.6943 2.20312 13.383 2.20312 11.0037C2.20312 8.62659 2.20313 8.32519 2.26363 7.37149C2.29333 6.43869 2.44403 5.79629 2.66513 5.23529C2.89996 4.65692 3.24349 4.12892 3.67712 3.67989C4.12073 3.23628 4.65043 2.88814 5.23363 2.65689C5.79463 2.45559 6.43593 2.29389 7.36983 2.25429ZM7.83953 7.54089C8.25712 7.11407 8.75524 6.7743 9.30503 6.54128C9.85482 6.30825 10.4454 6.18658 11.0425 6.18332C11.6396 6.18006 12.2315 6.29526 12.7838 6.52227C13.3361 6.74927 13.8379 7.08357 14.2601 7.50581C14.6823 7.92805 15.0166 8.42984 15.2437 8.98215C15.4707 9.53445 15.5859 10.1263 15.5826 10.7234C15.5793 11.3206 15.4577 11.9111 15.2246 12.4609C14.9916 13.0107 14.6519 13.5088 14.225 13.9264C13.3751 14.7579 12.2315 15.2207 11.0425 15.2142C9.85348 15.2077 8.715 14.7325 7.87423 13.8917C7.03345 13.0509 6.55823 11.9124 6.55174 10.7234C6.54524 9.53441 7.00799 8.39081 7.83953 7.54089ZM9.90972 13.449C10.6289 13.7469 11.4369 13.7468 12.156 13.449C12.8751 13.1511 13.4465 12.5797 13.7443 11.8606C14.0422 11.1415 14.0422 10.3335 13.7443 9.61433C13.4464 8.8952 12.8751 8.32386 12.1559 8.02599C11.4368 7.72813 10.6288 7.72814 9.90966 8.02602C9.19053 8.32391 8.61919 8.89526 8.32132 9.61439C8.02346 10.3335 8.02347 11.1415 8.32135 11.8607C8.61924 12.5798 9.19059 13.1511 9.90972 13.449ZM16.4239 6.91279C16.3261 7.01066 16.2099 7.08829 16.082 7.14126C15.9541 7.19423 15.8171 7.22149 15.6787 7.22149C15.5403 7.22149 15.4032 7.19423 15.2753 7.14126C15.1475 7.08829 15.0313 7.01066 14.9334 6.91279C14.8356 6.81493 14.7579 6.69874 14.705 6.57087C14.652 6.443 14.6247 6.30595 14.6247 6.16754C14.6247 6.02914 14.652 5.89209 14.705 5.76422C14.7579 5.63635 14.8356 5.52016 14.9334 5.42229C15.1311 5.22464 15.3992 5.1136 15.6787 5.1136C15.9582 5.1136 16.2263 5.22464 16.4239 5.42229C16.6216 5.61995 16.7326 5.88802 16.7326 6.16754C16.7326 6.44707 16.6216 6.71514 16.4239 6.91279Z" fill="white"/>
</svg>
