<svg width="17" height="15" viewBox="0 0 17 15" fill="none" xmlns="http://www.w3.org/2000/svg">
<path d="M7.4735 2.00222L8.3335 2.88322L9.1935 2.00222C9.54458 1.63806 9.96449 1.34725 10.4289 1.14667C10.8932 0.946096 11.3928 0.839745 11.8986 0.833791C12.4044 0.827837 12.9064 0.922399 13.3753 1.11199C13.8443 1.30158 14.2709 1.58242 14.6305 1.93822L14.6945 2.00222C16.1925 3.53822 16.2125 6.01622 14.7565 7.57822L14.6945 7.64422L8.3335 14.1662L1.9735 7.64222C0.453496 6.08522 0.453496 3.55922 1.9735 2.00122C2.32997 1.63189 2.75719 1.33814 3.22967 1.13752C3.70214 0.936894 4.21019 0.833496 4.7235 0.833496C5.2368 0.833496 5.74485 0.936894 6.21732 1.13752C6.6898 1.33814 7.11702 1.63289 7.4735 2.00222Z" stroke="white" stroke-width="1.667" stroke-linejoin="round"/>
</svg>
