<svg width="20" height="20" viewBox="0 0 20 20" fill="none" xmlns="http://www.w3.org/2000/svg">
<path d="M1.11024 1.66602C0.962901 1.66602 0.821593 1.72455 0.717406 1.82873C0.613219 1.93292 0.554688 2.07423 0.554688 2.22157C0.554688 2.36891 0.613219 2.51022 0.717406 2.61441C0.821593 2.7186 0.962901 2.77713 1.11024 2.77713H18.5658C18.7131 2.77713 18.8544 2.7186 18.9586 2.61441C19.0628 2.51022 19.1214 2.36891 19.1214 2.22157C19.1214 2.07423 19.0628 1.93292 18.9586 1.82873C18.8544 1.72455 18.7131 1.66602 18.5658 1.66602H1.11024ZM0.554688 9.99935C0.554687 9.85201 0.613219 9.7107 0.717406 9.60651C0.821593 9.50233 0.962901 9.44379 1.11024 9.44379H18.5658C18.7131 9.44379 18.8544 9.50233 18.9586 9.60651C19.0628 9.7107 19.1214 9.85201 19.1214 9.99935C19.1214 10.1467 19.0628 10.288 18.9586 10.3922C18.8544 10.4964 18.5658 11.4451 18.5658 11H10H1.5C1.11024 11 1 11 0.717406 11C0.613219 10.8958 0.554688 10.1467 0.554688 9.99935ZM0.554688 17.7771C0.554687 17.6298 0.613219 17.4885 0.717406 17.3843C0.821593 17.2801 0.962901 17.2216 1.11024 17.2216H18.5658C18.7131 17.2216 18.8544 17.2801 18.9586 17.3843C19.0628 17.4885 19.1214 17.6298 19.1214 17.7771C19.1214 17.9245 19.0628 18.0658 18.9586 18.17C18.8544 18.2742 18.7131 18.3327 18.5658 18.3327H1.11024C0.962901 18.3327 0.821593 18.2742 0.717406 18.17C0.613219 18.0658 0.554688 17.9245 0.554688 17.7771Z" fill="black"/>
</svg>
