<svg width="432" height="34" viewBox="0 0 432 34" fill="none" xmlns="http://www.w3.org/2000/svg">
<path opacity="0.07" d="M40 5H8C6.3 5 5 6.3 5 8V26C5 27.7 6.4 29 8 29H40C41.7 29 43 27.7 43 26V8C43 6.3 41.6 5 40 5Z" fill="white"/>
<path d="M40 6C41.1 6 42 6.9 42 8V26C42 27.1 41.1 28 40 28H8C6.9 28 6 27.1 6 26V8C6 6.9 6.9 6 8 6H40Z" fill="#006FCF"/>
<path d="M27.0156 24.9366V16.5156L42.0036 16.5286V18.8546L40.2716 20.7066L42.0036 22.5736V24.9486H39.2376L37.7676 23.3266L36.3076 24.9546L27.0156 24.9346V24.9366Z" fill="white"/>
<path d="M28.0156 24.0114V17.4414H33.5876V18.9544H29.8196V19.9824H33.4976V21.4704H29.8196V22.4804H33.5876V24.0114H28.0156Z" fill="#006FCF"/>
<path d="M33.5547 24.0124L36.6377 20.7234L33.5547 17.4414H35.9407L37.8247 19.5244L39.7147 17.4424H41.9977V17.4934L38.9807 20.7234L41.9977 23.9204V24.0134H39.6907L37.7737 21.9104L35.8757 24.0144H33.5547V24.0124Z" fill="#006FCF"/>
<path d="M27.71 9.03906H31.324L32.593 11.9201V9.03906H37.053L37.823 11.1981L38.594 9.03906H42V17.4601H24L27.71 9.03906Z" fill="white"/>
<path d="M28.3926 9.95508L25.4766 16.5211H27.4766L28.0266 15.2061H31.0066L31.5566 16.5211H33.6066L30.7026 9.95508H28.3926ZM28.6426 13.7321L29.5176 11.6421L30.3906 13.7321H28.6426Z" fill="#006FCF"/>
<path d="M33.5781 16.5201V9.95312L36.3891 9.96312L37.8371 14.0001L39.2931 9.95412H41.9971V16.5191L40.2571 16.5351V12.0251L38.6131 16.5191H37.0231L35.3471 12.0101V16.5201H33.5791H33.5781Z" fill="#006FCF"/>
<path d="M87.3894 5H56.6151C56.4869 5 56.3585 5 56.2305 5.00068C56.1225 5.00159 56.0146 5.00272 55.9066 5.00566C55.6713 5.012 55.4339 5.02605 55.2015 5.06772C54.9685 5.10765 54.7427 5.18207 54.5316 5.28855C54.1072 5.50441 53.7622 5.84937 53.5464 6.27378C53.4397 6.48497 53.3653 6.71095 53.3255 6.94419C53.2834 7.17679 53.2696 7.41393 53.2632 7.64903C53.2605 7.75697 53.2588 7.86493 53.2583 7.97291C53.2578 8.10065 53.2578 8.22884 53.2578 8.35726V25.6425C53.2578 25.7709 53.2578 25.8989 53.2583 26.0273C53.2589 26.1351 53.2603 26.2432 53.2632 26.3512C53.2696 26.5858 53.2836 26.8232 53.3255 27.0556C53.3652 27.2888 53.4395 27.5148 53.5461 27.726C53.6533 27.9369 53.7932 28.1296 53.9606 28.2967C54.1277 28.4642 54.3204 28.6041 54.5314 28.7112C54.7459 28.8206 54.9655 28.8902 55.2018 28.9325C55.4339 28.974 55.6713 28.988 55.9066 28.9943C56.0146 28.9968 56.1225 28.9982 56.2305 28.9989C56.3585 28.9998 56.4869 28.9998 56.6151 28.9998H87.3894C87.5174 28.9998 87.6458 28.9998 87.7737 28.9989C87.8815 28.9984 87.9894 28.9968 88.0978 28.9943C88.3327 28.988 88.5701 28.974 88.8029 28.9325C89.036 28.8925 89.2618 28.818 89.4729 28.7112C89.8971 28.4951 90.2419 28.1502 90.4581 27.726C90.5675 27.5115 90.6368 27.2918 90.6787 27.0556C90.7208 26.8232 90.7344 26.5858 90.7408 26.3512C90.7437 26.2432 90.7453 26.1351 90.7457 26.0273C90.7466 25.8989 90.7466 25.7709 90.7466 25.6425V8.35749C90.7466 8.22907 90.7466 8.10087 90.7457 7.97268C90.7453 7.86478 90.7436 7.75689 90.7408 7.64903C90.7344 7.41393 90.7208 7.17679 90.6787 6.94419C90.6392 6.71091 90.5649 6.4849 90.4581 6.27378C90.2421 5.84945 89.8972 5.50451 89.4729 5.28855C89.2617 5.18218 89.0359 5.10784 88.8029 5.06795C88.5701 5.02605 88.3327 5.01223 88.0978 5.00589C87.9898 5.00315 87.8818 5.00148 87.7737 5.00091C87.6458 5 87.5174 5 87.3894 5Z" fill="white"/>
<path d="M87.3863 5.80078L87.765 5.80146C87.8674 5.80214 87.97 5.80327 88.073 5.80599C88.2526 5.81097 88.4623 5.82071 88.658 5.85582C88.8279 5.88639 88.9706 5.93282 89.1074 6.00258C89.3812 6.14178 89.6036 6.36442 89.7425 6.63834C89.8118 6.77423 89.858 6.91602 89.8886 7.08747C89.9234 7.28089 89.9332 7.4913 89.9379 7.67181C89.9409 7.77373 89.9422 7.87566 89.9425 7.97984C89.9436 8.106 89.9436 8.23192 89.9436 8.3583V25.6436C89.9436 25.7699 89.9436 25.8959 89.9427 26.0245C89.9422 26.1264 89.9409 26.2284 89.9382 26.3303C89.9332 26.5106 89.9234 26.721 89.8881 26.9167C89.8624 27.0723 89.8132 27.2232 89.742 27.364C89.6028 27.638 89.3801 27.8606 89.106 27.9997C88.9701 28.069 88.8279 28.1155 88.6596 28.1458C88.4601 28.1814 88.2413 28.1911 88.0766 28.1957C87.9731 28.1979 87.8701 28.1995 87.7643 28.2C87.6386 28.2009 87.5122 28.2009 87.3863 28.2009H56.607C56.4824 28.2009 56.3579 28.2009 56.231 28.2C56.1291 28.1995 56.0272 28.1982 55.9253 28.1959C55.7568 28.1913 55.538 28.1814 55.34 28.146C55.1835 28.12 55.0319 28.0703 54.8902 27.9988C54.7543 27.9298 54.6303 27.8396 54.5228 27.7316C54.415 27.6239 54.325 27.4999 54.256 27.364C54.1849 27.2224 54.1355 27.0708 54.1097 26.9144C54.0744 26.7189 54.0644 26.5094 54.0599 26.3305C54.0573 26.2282 54.0558 26.1259 54.0554 26.0236L54.0547 25.7231V8.27903L54.0551 7.97893C54.0556 7.87647 54.0571 7.77402 54.0597 7.67159C54.0647 7.49221 54.0744 7.2827 54.11 7.08566C54.1358 6.92958 54.1851 6.7783 54.2563 6.63698C54.3251 6.50154 54.4148 6.37788 54.5235 6.26939C54.6313 6.16147 54.7554 6.07127 54.8913 6.00213C55.0326 5.93114 55.1838 5.88182 55.3398 5.85582C55.5357 5.82071 55.7457 5.81097 55.9255 5.80599C56.0279 5.80327 56.1305 5.80214 56.2322 5.80146L56.612 5.80078H87.3863Z" fill="white"/>
<path d="M63.1109 13.1017C63.4289 12.7042 63.6445 12.1704 63.5876 11.625C63.1224 11.6481 62.5549 11.9319 62.226 12.3298C61.9309 12.6705 61.6697 13.2265 61.7377 13.749C62.26 13.7943 62.7818 13.4881 63.1109 13.1017Z" fill="white"/>
<path d="M63.5806 13.8507C62.8219 13.8054 62.1773 14.281 61.8151 14.281C61.4527 14.281 60.8981 13.8733 60.2981 13.8844C59.5174 13.8958 58.7931 14.3374 58.3967 15.0395C57.5818 16.4438 58.1815 18.5275 58.9743 19.6713C59.3591 20.2375 59.8229 20.8603 60.434 20.8379C61.0115 20.8153 61.2378 20.4642 61.9395 20.4642C62.6409 20.4642 62.8447 20.8379 63.456 20.8266C64.0898 20.8153 64.4861 20.2604 64.8709 19.6941C65.3126 19.0486 65.4931 18.4258 65.5044 18.3918C65.4931 18.3805 64.2823 17.916 64.2709 16.5231C64.2596 15.3566 65.2218 14.8017 65.267 14.7675C64.7237 13.9639 63.8748 13.8733 63.5804 13.8507" fill="white"/>
<path d="M71.1461 12.2734C72.7945 12.2734 73.9426 13.4097 73.9426 15.064C73.9426 16.7242 72.7709 17.8664 71.1049 17.8664H69.2798V20.7691H67.9612V12.2734H71.1461ZM69.2798 16.7595H70.7928C71.9411 16.7595 72.5943 16.1414 72.5943 15.0699C72.5943 13.9986 71.9408 13.3862 70.7986 13.3862H69.2798V16.7595Z" fill="white"/>
<path d="M74.2659 19.0095C74.2659 17.9203 75.096 17.2963 76.6266 17.2021L78.2691 17.102V16.6309C78.2691 15.9424 77.8159 15.5655 77.0093 15.5655C76.3439 15.5655 75.861 15.9068 75.7614 16.4307H74.5719C74.6074 15.3299 75.6434 14.5293 77.0447 14.5293C78.5517 14.5293 79.5349 15.3182 79.5349 16.5428V20.7698H78.3164V19.7512H78.287C77.9395 20.4164 77.174 20.8343 76.3439 20.8343C75.1195 20.8343 74.2659 20.1046 74.2659 19.0095ZM78.2691 18.4621V17.9851L76.8032 18.0793C75.9788 18.1323 75.5494 18.4383 75.5494 18.9739C75.5494 19.4921 75.9967 19.8278 76.6972 19.8278C77.5919 19.8278 78.2691 19.2566 78.2691 18.4621Z" fill="white"/>
<path d="M80.6595 23.0418V22.0235C80.742 22.035 80.942 22.0468 81.048 22.0468C81.6307 22.0468 81.9605 21.7999 82.1607 21.1637L82.2785 20.7871L80.0471 14.6055H81.4246L82.979 19.6213H83.0085L84.5626 14.6055H85.9051L83.5912 21.0989C83.0612 22.5886 82.4549 23.0773 81.1716 23.0773C81.0715 23.0773 80.7477 23.0655 80.6595 23.0418Z" fill="white"/>
<path opacity="0.07" d="M136 5H104C102.3 5 101 6.3 101 8V26C101 27.7 102.4 29 104 29H136C137.7 29 139 27.7 139 26V8C139 6.3 137.6 5 136 5Z" fill="white"/>
<path d="M136 6C137.1 6 138 6.9 138 8V26C138 27.1 137.1 28 136 28H104C102.9 28 102 27.1 102 26V8C102 6.9 102.9 6 104 6H136Z" fill="white"/>
<path d="M119.096 16.9757V20.1757H118.078V12.2757H120.769C121.092 12.2703 121.412 12.3286 121.712 12.4474C122.012 12.5661 122.285 12.743 122.516 12.9677C122.735 13.1721 122.912 13.4177 123.036 13.6904C123.16 13.9631 123.229 14.2575 123.239 14.5569C123.249 14.8564 123.201 15.1549 123.095 15.4354C122.99 15.7159 122.831 15.9729 122.626 16.1917L122.516 16.3077C122.046 16.7547 121.418 16.9977 120.769 16.9817L119.096 16.9757ZM119.096 13.2437V16.0317H120.794C121.171 16.0437 121.535 15.8967 121.799 15.6277C121.988 15.4309 122.115 15.1829 122.164 14.9146C122.213 14.6462 122.182 14.3694 122.075 14.1186C121.968 13.8677 121.789 13.6539 121.561 13.5037C121.334 13.3535 121.067 13.2735 120.794 13.2737L119.096 13.2437ZM125.58 14.5917C126.23 14.5617 126.866 14.7797 127.358 15.2047C127.803 15.6347 128.04 16.2347 128.008 16.8537V20.1877H127.039V19.4217H126.99C126.816 19.709 126.571 19.946 126.277 20.1093C125.984 20.2726 125.653 20.3565 125.317 20.3527C124.769 20.3705 124.235 20.1801 123.821 19.8197C123.625 19.66 123.468 19.4577 123.362 19.2284C123.256 18.999 123.203 18.7485 123.208 18.4957C123.197 18.2403 123.246 17.9859 123.353 17.7535C123.459 17.5211 123.62 17.3176 123.821 17.1597C124.315 16.8049 124.912 16.6238 125.519 16.6447C126.036 16.6247 126.549 16.7377 127.009 16.9757V16.7677C127.013 16.5958 126.977 16.4253 126.904 16.2692C126.832 16.1131 126.725 15.9755 126.592 15.8667C126.324 15.6234 125.974 15.4917 125.612 15.4987C125.349 15.4963 125.09 15.5608 124.86 15.6863C124.629 15.8117 124.434 15.994 124.293 16.2157L123.398 15.6517C123.641 15.3035 123.969 15.0233 124.351 14.8378C124.733 14.6522 125.156 14.5675 125.58 14.5917ZM124.293 18.5197C124.291 18.6493 124.32 18.7774 124.379 18.8928C124.438 19.0083 124.524 19.1075 124.63 19.1817C124.853 19.3577 125.13 19.4507 125.415 19.4447C125.844 19.4437 126.255 19.2747 126.561 18.9727C126.866 18.6867 127.039 18.2877 127.039 17.8697C126.654 17.5961 126.186 17.4639 125.715 17.4957C125.349 17.4813 124.988 17.5844 124.685 17.7897C124.565 17.8701 124.467 17.9786 124.398 18.1059C124.33 18.2332 124.294 18.3753 124.293 18.5197ZM133.579 14.7697L130.189 22.5597H129.141L130.422 19.8317L128.198 14.7697H129.301L130.913 18.6547L132.482 14.7697H133.579Z" fill="#5F6368"/>
<path d="M114.988 16.2833C114.988 15.9753 114.964 15.6673 114.915 15.3633H110.625V17.1103H113.076C113.026 17.3879 112.921 17.6526 112.766 17.8886C112.611 18.1245 112.411 18.3268 112.176 18.4833V19.6173H113.64C114.085 19.1866 114.435 18.6674 114.667 18.0931C114.899 17.5189 115.009 16.9023 114.988 16.2833Z" fill="#4285F4"/>
<path d="M110.63 20.7219C111.736 20.7523 112.813 20.36 113.64 19.6249L112.174 18.4849C111.822 18.7108 111.423 18.8533 111.007 18.9017C110.592 18.9501 110.17 18.9031 109.776 18.7643C109.381 18.6255 109.023 18.3984 108.729 18.1005C108.435 17.8026 108.213 17.4416 108.08 17.0449H106.578V18.2149C106.954 18.968 107.532 19.6014 108.248 20.0442C108.964 20.487 109.789 20.7217 110.63 20.7219Z" fill="#34A853"/>
<path d="M108.083 17.0495C107.893 16.4868 107.893 15.8772 108.083 15.3145V14.1445H106.581C106.261 14.776 106.094 15.474 106.094 16.182C106.094 16.89 106.261 17.5881 106.581 18.2195L108.083 17.0495Z" fill="#FBBC04"/>
<path d="M110.63 13.4392C111.277 13.4274 111.903 13.6718 112.37 14.1192L113.67 12.8262C112.841 12.0482 111.742 11.6239 110.605 11.6432C109.768 11.6474 108.949 11.8832 108.239 12.3245C107.528 12.7658 106.953 13.3953 106.578 14.1432L108.08 15.3142C108.256 14.7743 108.596 14.303 109.054 13.9667C109.511 13.6303 110.062 13.4459 110.63 13.4392Z" fill="#EA4335"/>
<path opacity="0.07" d="M184 5H152C150.3 5 149 6.3 149 8V26C149 27.7 150.4 29 152 29H184C185.7 29 187 27.7 187 26V8C187 6.3 185.6 5 184 5Z" fill="white"/>
<path d="M184 6C185.1 6 186 6.9 186 8V26C186 27.1 185.1 28 184 28H152C150.9 28 150 27.1 150 26V8C150 6.9 150.9 6 152 6H184Z" fill="white"/>
<path d="M164 24C167.866 24 171 20.866 171 17C171 13.134 167.866 10 164 10C160.134 10 157 13.134 157 17C157 20.866 160.134 24 164 24Z" fill="#EB001B"/>
<path d="M172 24C175.866 24 179 20.866 179 17C179 13.134 175.866 10 172 10C168.134 10 165 13.134 165 17C165 20.866 168.134 24 172 24Z" fill="#00A2E5"/>
<path d="M171 17.0008C171 14.6008 169.8 12.5008 168 11.3008C166.2 12.6008 165 14.7008 165 17.0008C165 19.3008 166.2 21.5008 168 22.7008C169.8 21.5008 171 19.4008 171 17.0008Z" fill="#7375CF"/>
<path opacity="0.07" d="M232 5H200C198.3 5 197 6.3 197 8V26C197 27.7 198.4 29 200 29H232C233.7 29 235 27.7 235 26V8C235 6.3 233.6 5 232 5Z" fill="white"/>
<path d="M232 6C233.1 6 234 6.9 234 8V26C234 27.1 233.1 28 232 28H200C198.9 28 198 27.1 198 26V8C198 6.9 198.9 6 200 6H232Z" fill="white"/>
<path d="M212 24C215.866 24 219 20.866 219 17C219 13.134 215.866 10 212 10C208.134 10 205 13.134 205 17C205 20.866 208.134 24 212 24Z" fill="#EB001B"/>
<path d="M220 24C223.866 24 227 20.866 227 17C227 13.134 223.866 10 220 10C216.134 10 213 13.134 213 17C213 20.866 216.134 24 220 24Z" fill="#F79E1B"/>
<path d="M219 17.0008C219 14.6008 217.8 12.5008 216 11.3008C214.2 12.6008 213 14.7008 213 17.0008C213 19.3008 214.2 21.5008 216 22.7008C217.8 21.5008 219 19.4008 219 17.0008Z" fill="#FF5F00"/>
<path opacity="0.07" d="M280 5H248C246.3 5 245 6.3 245 8V26C245 27.7 246.4 29 248 29H280C281.7 29 283 27.7 283 26V8C283 6.3 281.6 5 280 5Z" fill="white"/>
<path d="M280 6C281.1 6 282 6.9 282 8V26C282 27.1 281.1 28 280 28H248C246.9 28 246 27.1 246 26V8C246 6.9 246.9 6 248 6H280Z" fill="white"/>
<path d="M268.9 13.3C269.1 12.3 268.9 11.6 268.3 11C267.7 10.3 266.6 10 265.2 10H261.1C260.8 10 260.6 10.2 260.5 10.5L259 20.6C259 20.8 259.1 21 259.3 21H262L262.4 17.6L264.2 15.4L268.9 13.3Z" fill="#003087"/>
<path d="M268.902 13.3008L268.702 13.5008C268.202 16.3008 266.502 17.3008 264.102 17.3008H263.002C262.702 17.3008 262.502 17.5008 262.402 17.8008L261.802 21.7008L261.602 22.7008C261.602 22.9008 261.702 23.1008 261.902 23.1008H264.002C264.302 23.1008 264.502 22.9008 264.502 22.7008V22.6008L264.902 20.2008V20.1008C264.902 19.9008 265.202 19.7008 265.402 19.7008H265.702C267.802 19.7008 269.402 18.9008 269.802 16.5008C270.002 15.5008 269.902 14.7008 269.402 14.1008C269.302 13.6008 269.102 13.4008 268.902 13.3008Z" fill="#3086C8"/>
<path d="M268.298 13.1008C268.198 13.0008 268.098 13.0008 267.998 13.0008C267.898 13.0008 267.798 13.0008 267.698 12.9008C267.398 12.8008 266.998 12.8008 266.598 12.8008H263.598C263.498 12.8008 263.398 12.8008 263.398 12.9008C263.198 13.0008 263.098 13.1008 263.098 13.3008L262.398 17.7008V17.8008C262.398 17.5008 262.698 17.3008 262.998 17.3008H264.298C266.798 17.3008 268.398 16.3008 268.898 13.5008V13.3008C268.798 13.2008 268.598 13.1008 268.398 13.1008H268.298Z" fill="black"/>
<path opacity="0.07" d="M328 5H296C294.3 5 293 6.3 293 8V26C293 27.7 294.4 29 296 29H328C329.7 29 331 27.7 331 26V8C331 6.3 329.6 5 328 5Z" fill="white"/>
<path d="M328.889 5C330.05 5 331 5.982 331 7.182V26.818C331 28.018 330.05 29 328.889 29H295.11C293.95 29 293 28.018 293 26.818V7.182C293 5.982 293.95 5 295.111 5H328.889Z" fill="#5A31F4"/>
<path d="M302.353 16.368C301.336 16.145 300.883 16.058 300.883 15.663C300.883 15.291 301.189 15.105 301.803 15.105C302.343 15.105 302.737 15.343 303.028 15.809C303.038 15.8263 303.055 15.839 303.074 15.8446C303.093 15.8502 303.114 15.8482 303.132 15.839L304.278 15.255C304.288 15.2498 304.296 15.2427 304.303 15.234C304.31 15.2254 304.315 15.2155 304.318 15.2048C304.321 15.1942 304.322 15.183 304.321 15.1721C304.319 15.1611 304.316 15.1505 304.31 15.141C303.835 14.31 302.957 13.855 301.8 13.855C300.28 13.855 299.336 14.61 299.336 15.811C299.336 17.086 300.486 17.408 301.506 17.631C302.526 17.853 302.98 17.941 302.98 18.336C302.98 18.732 302.648 18.918 301.987 18.918C301.375 18.918 300.922 18.636 300.647 18.088C300.637 18.0692 300.621 18.055 300.601 18.0485C300.581 18.0419 300.559 18.0436 300.54 18.053L299.397 18.623C299.378 18.633 299.363 18.6503 299.356 18.6711C299.349 18.6919 299.351 18.7145 299.361 18.734C299.815 19.654 300.745 20.171 301.988 20.171C303.571 20.171 304.527 19.429 304.527 18.191C304.527 16.953 303.372 16.593 302.354 16.371L302.353 16.368ZM308.493 13.855C307.843 13.855 307.269 14.087 306.857 14.501C306.851 14.507 306.844 14.5111 306.836 14.5127C306.828 14.5144 306.819 14.5135 306.812 14.5102C306.804 14.5069 306.798 14.5014 306.794 14.4944C306.789 14.4874 306.787 14.4792 306.788 14.471V11.831C306.788 11.8204 306.786 11.8099 306.782 11.8001C306.778 11.7903 306.772 11.7813 306.765 11.7738C306.757 11.7662 306.749 11.7603 306.739 11.7562C306.729 11.7521 306.719 11.75 306.708 11.75H305.273C305.262 11.75 305.252 11.7521 305.242 11.7563C305.232 11.7604 305.223 11.7665 305.216 11.7741C305.208 11.7818 305.202 11.7908 305.198 11.8008C305.195 11.8107 305.193 11.8213 305.193 11.832V20.026C305.193 20.0367 305.195 20.0473 305.198 20.0572C305.202 20.0672 305.208 20.0762 305.216 20.0839C305.223 20.0915 305.232 20.0976 305.242 20.1017C305.252 20.1059 305.262 20.108 305.273 20.108H306.706C306.717 20.1081 306.727 20.1061 306.737 20.102C306.747 20.0979 306.756 20.0919 306.764 20.0842C306.771 20.0766 306.777 20.0675 306.781 20.0575C306.785 20.0475 306.787 20.0368 306.787 20.026V16.432C306.787 15.737 307.315 15.205 308.026 15.205C308.736 15.205 309.252 15.726 309.252 16.432V20.026C309.252 20.0368 309.254 20.0475 309.258 20.0575C309.261 20.0675 309.267 20.0766 309.275 20.0842C309.283 20.0919 309.292 20.0979 309.302 20.102C309.311 20.1061 309.322 20.1081 309.333 20.108H310.766C310.777 20.1081 310.787 20.1061 310.797 20.102C310.807 20.0979 310.816 20.0919 310.824 20.0842C310.831 20.0766 310.837 20.0675 310.841 20.0575C310.845 20.0475 310.847 20.0368 310.847 20.026V16.432C310.847 14.922 309.867 13.855 308.493 13.855ZM313.756 13.62C312.978 13.62 312.249 13.86 311.726 14.208C311.708 14.2193 311.696 14.2369 311.691 14.2572C311.686 14.2774 311.689 14.2988 311.699 14.317L312.331 15.405C312.336 15.4143 312.343 15.4224 312.351 15.4289C312.36 15.4354 312.369 15.4402 312.38 15.443C312.39 15.4458 312.401 15.4466 312.411 15.4452C312.422 15.4438 312.432 15.4403 312.441 15.435C312.838 15.1928 313.294 15.0661 313.759 15.069C315.009 15.069 315.929 15.96 315.929 17.137C315.929 18.14 315.193 18.882 314.26 18.882C313.5 18.882 312.972 18.436 312.972 17.805C312.972 17.444 313.124 17.148 313.52 16.939C313.53 16.934 313.538 16.927 313.545 16.9185C313.552 16.91 313.558 16.9001 313.561 16.8895C313.564 16.8789 313.564 16.8678 313.563 16.8568C313.561 16.8459 313.558 16.8354 313.552 16.826L312.956 15.808C312.946 15.7914 312.931 15.7788 312.913 15.7724C312.895 15.766 312.876 15.7662 312.858 15.773C312.059 16.072 311.499 16.791 311.499 17.757C311.499 19.217 312.651 20.307 314.259 20.307C316.136 20.307 317.486 18.994 317.486 17.112C317.486 15.094 315.916 13.62 313.756 13.62ZM321.678 13.843C320.954 13.843 320.305 14.113 319.833 14.589C319.807 14.616 319.764 14.596 319.764 14.56V13.988C319.764 13.9773 319.762 13.9667 319.758 13.9568C319.755 13.9468 319.749 13.9378 319.741 13.9301C319.734 13.9225 319.725 13.9164 319.715 13.9123C319.705 13.9081 319.695 13.906 319.684 13.906H318.287C318.276 13.906 318.266 13.9081 318.256 13.9123C318.246 13.9164 318.237 13.9225 318.23 13.9301C318.222 13.9378 318.216 13.9468 318.212 13.9568C318.209 13.9667 318.207 13.9773 318.207 13.988V22.17C318.207 22.1806 318.209 22.1911 318.213 22.2009C318.217 22.2107 318.223 22.2197 318.23 22.2272C318.237 22.2348 318.246 22.2407 318.256 22.2448C318.266 22.2489 318.276 22.251 318.287 22.251H319.72C319.731 22.2511 319.741 22.2491 319.751 22.2451C319.761 22.2411 319.77 22.2351 319.778 22.2276C319.785 22.22 319.791 22.211 319.795 22.2012C319.799 22.1913 319.801 22.1807 319.801 22.17V19.487C319.801 19.451 319.844 19.433 319.87 19.457C320.36 19.9147 321.008 20.1655 321.678 20.157C323.36 20.157 324.671 18.784 324.671 17C324.671 15.216 323.358 13.843 321.678 13.843ZM321.407 18.772C320.451 18.772 319.726 18.004 319.726 16.989C319.726 15.974 320.449 15.206 321.407 15.206C322.365 15.206 323.087 15.961 323.087 16.989C323.087 18.016 322.375 18.772 321.407 18.772Z" fill="white"/>
<path d="M358.7 5V29H351.5C350.2 29 349.4 28 349.7 26.7L354.1 7.3C354.4 6 356 5 357.3 5H358.7ZM371.3 5C370 5 368.4 6 368.1 7.3L363.6 26.7C363.3 28 364.1 29 365.4 29H360.5V5H371.3Z" fill="#005B9A"/>
<path d="M357.302 5C356.002 5 354.402 6.1 354.102 7.3L349.702 26.7C349.402 28 350.202 29 351.502 29H342.602C341.802 29 341.102 28.4 341.102 27.6V6.6C341.102 5.8 341.802 5 342.602 5H357.302Z" fill="#E9292D"/>
<path d="M371.304 5C370.004 5 368.404 6.1 368.104 7.3L363.704 26.7C363.404 28 364.204 29 365.504 29H351.004H351.504C350.204 29 349.404 28 349.704 26.7L354.104 7.3C354.404 6 356.004 5 357.304 5H371.304Z" fill="#0E73B9"/>
<path d="M379.002 6.6V27.6C379.002 28.4 378.402 29 377.502 29H365.402C364.102 29 363.302 27.9 363.602 26.7L368.102 7.3C368.402 6 370.002 5 371.302 5H377.502C378.402 5 379.002 5.7 379.002 6.6Z" fill="#059DA4"/>
<path d="M355.875 18.6445H356.015C356.155 18.6445 356.295 18.5745 356.295 18.5045L356.715 17.8745H357.905L357.695 18.2245H359.095L358.885 18.8545H357.205C356.995 19.1345 356.785 19.2745 356.505 19.2745H355.665L355.875 18.6445ZM355.665 19.5545H358.675L358.465 20.2545H357.275L357.065 20.9545H358.255L358.045 21.6545H356.855L356.575 22.7045C356.505 22.8445 356.575 22.9845 356.855 22.9145H357.835L357.625 23.6145H355.735C355.385 23.6145 355.245 23.4045 355.385 22.9845L355.735 21.6545H354.965L355.175 20.9545H355.945L356.155 20.2545H355.455L355.665 19.5545ZM360.495 17.8045V18.2245C360.495 18.2245 361.055 17.8045 361.615 17.8045H363.575L362.805 20.4645C362.735 20.7445 362.455 20.9545 362.035 20.9545H359.795L359.305 22.8445C359.305 22.9145 359.305 22.9845 359.445 22.9845H359.865L359.725 23.5445H358.605C358.185 23.5445 358.045 23.4045 358.115 23.1945L359.585 17.8045H360.495ZM362.175 18.5745H360.425L360.215 19.2745C360.215 19.2745 360.495 19.0645 360.985 19.0645H362.035L362.175 18.5745ZM361.545 20.2545C361.685 20.2545 361.755 20.2545 361.755 20.1145L361.895 19.7645H360.145L360.005 20.3245L361.545 20.2545ZM360.355 21.0945H361.335V21.5145H361.615C361.755 21.5145 361.825 21.4445 361.825 21.3745L361.895 21.0945H362.735L362.595 21.5845C362.525 21.9345 362.245 22.0745 361.825 22.1445H361.265V22.9145C361.265 23.0545 361.335 23.1245 361.615 23.1245H362.105L361.965 23.6845H360.775C360.425 23.6845 360.285 23.5445 360.285 23.1945L360.355 21.0945ZM364.555 18.6445L364.765 17.8045H365.955L365.885 18.0845C365.885 18.0845 366.445 17.8045 366.935 17.8045H368.405L368.195 18.6445H367.985L366.865 22.4945H367.075L366.865 23.2645H366.655L366.585 23.6145H365.395L365.465 23.2645H363.295L363.505 22.4945H363.715L364.835 18.6445H364.555ZM365.815 18.6445L365.535 19.6945C365.535 19.6945 366.025 19.4845 366.445 19.4145C366.515 19.0645 366.655 18.6445 366.655 18.6445H365.815ZM365.325 20.1845L365.045 21.3045C365.045 21.3045 365.605 21.0245 366.025 21.0245C366.165 20.6045 366.235 20.2545 366.235 20.2545L365.325 20.1845ZM365.535 22.4945L365.745 21.7245H364.905L364.695 22.4945H365.535ZM368.405 17.8045H369.525L369.595 18.2245C369.595 18.2945 369.665 18.3645 369.805 18.3645H370.015L369.805 19.0645H369.035C368.755 19.0645 368.545 18.9945 368.545 18.7145L368.405 17.8045ZM368.055 19.2745H371.625L371.415 20.0445H370.225L370.015 20.7445H371.135L370.925 21.5145H369.665L369.385 21.9345H370.015L370.155 22.7745C370.155 22.8445 370.225 22.9145 370.365 22.9145H370.575L370.365 23.6145H369.665C369.315 23.6145 369.105 23.5445 369.105 23.2645L368.965 22.4945L368.405 23.3345C368.265 23.5445 368.055 23.6845 367.775 23.6845H366.725L366.935 22.9845H367.285C367.425 22.9845 367.495 22.9145 367.635 22.7745L368.475 21.5145H367.425L367.635 20.7445H368.825L369.035 20.0445H367.845L368.055 19.2745ZM348.315 14.2345C348.175 14.9345 347.895 15.4245 347.405 15.7745C346.915 16.1245 346.285 16.3345 345.515 16.3345C344.815 16.3345 344.255 16.1245 343.975 15.7745C343.765 15.4945 343.625 15.2145 343.625 14.7945C343.625 14.6545 343.625 14.4445 343.695 14.2345L344.535 10.3145H345.725L344.955 14.2345V14.5145C344.955 14.7245 345.025 14.8645 345.095 15.0045C345.235 15.2145 345.445 15.2845 345.795 15.2845C346.145 15.2845 346.495 15.2145 346.705 15.0045C346.915 14.7945 347.125 14.5845 347.195 14.2345L347.965 10.3145H349.155L348.315 14.2345ZM349.435 12.6945H350.275L350.205 13.1845L350.345 13.0445C350.625 12.7645 350.975 12.6245 351.395 12.6245C351.745 12.6245 352.025 12.7645 352.165 12.9745C352.305 13.1845 352.375 13.4645 352.305 13.8845L351.815 16.2645H350.905L351.325 14.0945C351.395 13.8145 351.395 13.6045 351.325 13.5345C351.255 13.3945 351.115 13.3945 350.975 13.3945C350.765 13.3945 350.555 13.4645 350.415 13.6045C350.275 13.7445 350.135 13.9545 350.135 14.2345L349.715 16.2645H348.805L349.435 12.6945ZM359.235 12.6945H360.075L360.005 13.1845L360.145 13.0445C360.425 12.7645 360.775 12.6245 361.195 12.6245C361.545 12.6245 361.825 12.7645 361.965 12.9745C362.105 13.1845 362.175 13.4645 362.105 13.8845L361.615 16.2645H360.705L361.125 14.0245C361.195 13.8145 361.125 13.6045 361.055 13.5345C360.985 13.3945 360.845 13.3945 360.705 13.3945C360.495 13.3945 360.285 13.4645 360.145 13.6045C360.005 13.7445 359.865 13.9545 359.865 14.2345L359.445 16.2645H358.535L359.235 12.6945ZM353.425 12.6945H354.405L353.635 16.1945H352.655L353.425 12.6945ZM353.775 11.3645H354.755L354.545 12.2045H353.565L353.775 11.3645ZM355.175 15.9145C354.965 15.7045 354.825 15.3545 354.825 14.9345V14.7245C354.825 14.6545 354.825 14.5145 354.895 14.4445C355.035 13.8845 355.245 13.3945 355.595 13.1145C355.945 12.7645 356.435 12.6245 356.925 12.6245C357.345 12.6245 357.695 12.7645 357.975 12.9745C358.185 13.1845 358.325 13.5345 358.325 13.9545V14.1645C358.325 14.2345 358.325 14.3745 358.255 14.4445C358.115 15.0045 357.905 15.4245 357.555 15.7745C357.205 16.1245 356.715 16.2645 356.225 16.2645C355.875 16.2645 355.525 16.1245 355.175 15.9145ZM357.065 15.2145C357.205 15.0045 357.345 14.7245 357.415 14.3745V14.0245C357.415 13.8145 357.345 13.6745 357.275 13.5345C357.213 13.466 357.138 13.4118 357.053 13.3755C356.968 13.3393 356.877 13.3218 356.785 13.3245C356.505 13.3245 356.295 13.3945 356.155 13.6045C356.015 13.8145 355.875 14.0945 355.805 14.4445V14.7245C355.805 14.9345 355.875 15.0745 355.945 15.2145C356.085 15.3545 356.225 15.4245 356.435 15.4245C356.715 15.4945 356.855 15.4245 357.065 15.2145ZM363.575 10.5245H366.095C366.585 10.5245 366.935 10.6645 367.215 10.8745C367.495 11.0845 367.565 11.4345 367.565 11.7845V12.0645C367.565 12.1345 367.565 12.2745 367.495 12.3445C367.425 12.8345 367.145 13.3245 366.795 13.6045C366.375 13.9545 365.955 14.0945 365.395 14.0945H363.995L363.575 16.1245H362.385L363.575 10.5245ZM364.135 13.1145H365.255C365.535 13.1145 365.745 13.0445 365.955 12.9045C366.095 12.7645 366.235 12.5545 366.305 12.2745V11.9945C366.305 11.7845 366.235 11.6445 366.095 11.5745C365.955 11.5045 365.745 11.4345 365.395 11.4345H364.485L364.135 13.1145ZM372.815 16.8245C372.465 17.5945 372.115 18.0845 371.905 18.2945C371.695 18.5045 371.275 18.9945 370.295 18.9945L370.365 18.3645C371.205 18.0845 371.625 16.9645 371.905 16.4045L371.625 12.6245H372.815L372.885 15.0045L373.795 12.6945H374.845L372.815 16.8245ZM369.875 12.9745L369.455 13.2545C369.035 12.9045 368.615 12.6945 367.915 13.0445C366.935 13.5345 366.025 17.1745 368.825 15.9845L368.965 16.1945H370.085L370.785 12.9045L369.875 12.9745ZM369.315 14.7945C369.105 15.3545 368.755 15.6345 368.405 15.5645C368.125 15.4245 368.055 14.9345 368.195 14.3745C368.405 13.8145 368.755 13.5345 369.105 13.6045C369.385 13.7445 369.455 14.2345 369.315 14.7945Z" fill="white"/>
<path opacity="0.07" d="M424 5H392C390.3 5 389 6.3 389 8V26C389 27.7 390.4 29 392 29H424C425.7 29 427 27.7 427 26V8C427 6.3 425.6 5 424 5Z" fill="white"/>
<path d="M424 6C425.1 6 426 6.9 426 8V26C426 27.1 425.1 28 424 28H392C390.9 28 390 27.1 390 26V8C390 6.9 390.9 6 392 6H424Z" fill="white"/>
<path d="M417.3 15.1H417C416.6 16.1 416.3 16.6 416 18.1H417.9C417.6 16.6 417.6 15.9 417.3 15.1ZM420.2 21H418.5C418.4 21 418.4 21 418.3 20.9L418.1 20L418 19.8H415.6C415.5 19.8 415.4 19.8 415.4 20L415.1 20.9C415.1 21 415 21 415 21H412.9L413.1 20.5L416 13.7C416 13.2 416.3 13 416.8 13H418.3C418.4 13 418.5 13 418.5 13.2L419.9 19.7C420 20.1 420.1 20.4 420.1 20.8C420.2 20.9 420.2 20.9 420.2 21ZM406.8 20.7L407.2 18.9C407.3 18.9 407.4 19 407.4 19C408.1 19.3 408.8 19.5 409.5 19.4C409.7 19.4 410 19.3 410.2 19.2C410.7 19 410.7 18.5 410.3 18.1C410.1 17.9 409.8 17.8 409.5 17.6C409.1 17.4 408.7 17.2 408.4 16.9C407.2 15.9 407.6 14.5 408.3 13.8C408.9 13.4 409.2 13 410 13C411.2 13 412.5 13 413.1 13.2H413.2C413.1 13.8 413 14.3 412.8 14.9C412.3 14.7 411.8 14.5 411.3 14.5C411 14.5 410.7 14.5 410.4 14.6C410.2 14.6 410.1 14.7 410 14.8C409.8 15 409.8 15.3 410 15.5L410.5 15.9C410.9 16.1 411.3 16.3 411.6 16.5C412.1 16.8 412.6 17.3 412.7 17.9C412.9 18.8 412.6 19.6 411.8 20.2C411.3 20.6 411.1 20.8 410.4 20.8C409 20.8 407.9 20.9 407 20.6C406.9 20.8 406.9 20.8 406.8 20.7ZM403.3 21C403.4 20.3 403.4 20.3 403.5 20C404 17.8 404.5 15.5 404.9 13.3C405 13.1 405 13 405.2 13H407C406.8 14.2 406.6 15.1 406.3 16.2C406 17.7 405.7 19.2 405.3 20.7C405.3 20.9 405.2 20.9 405 20.9M394 13.2C394 13.1 394.2 13 394.3 13H397.7C398.2 13 398.6 13.3 398.7 13.8L399.6 18.2C399.6 18.3 399.6 18.3 399.7 18.4C399.7 18.3 399.8 18.3 399.8 18.3L401.9 13.2C401.8 13.1 401.9 13 402 13H404.1C404.1 13.1 404.1 13.1 404 13.2L400.9 20.5C400.8 20.7 400.8 20.8 400.7 20.9C400.6 21 400.4 20.9 400.2 20.9H398.7C398.6 20.9 398.5 20.9 398.5 20.7L396.9 14.5C396.7 14.3 396.4 14 396 13.9C395.4 13.6 394.3 13.4 394.1 13.4L394 13.2Z" fill="#142688"/>
</svg>
