<svg width="50" height="50" viewBox="0 0 50 50" fill="none" xmlns="http://www.w3.org/2000/svg">
<path d="M30.2871 26.0246L20.9303 31.4537C20.1362 31.9139 19.1171 31.3566 19.1171 30.4287V19.5705C19.1171 18.6441 20.1347 18.0853 20.9303 18.547L30.2871 23.9761C30.4677 24.0793 30.6179 24.2283 30.7223 24.4082C30.8267 24.5881 30.8817 24.7924 30.8817 25.0004C30.8817 25.2084 30.8267 25.4127 30.7223 25.5925C30.6179 25.7724 30.4677 25.9214 30.2871 26.0246Z" fill="white"/>
<path d="M0 25C0 11.1929 11.1929 0 25 0C38.8071 0 50 11.1929 50 25C50 38.8071 38.8071 50 25 50C11.1929 50 0 38.8071 0 25Z" fill="white" fill-opacity="0.5"/>
</svg>
