<svg width="38" height="16" viewBox="0 0 38 16" fill="none" xmlns="http://www.w3.org/2000/svg">
<path d="M4.45523 6.75227C2.9516 6.42659 2.28232 6.29926 2.28232 5.72085C2.28232 5.17698 2.73533 4.90569 3.64199 4.90569C4.43923 4.90569 5.02213 5.25376 5.45147 5.93519C5.48346 5.98766 5.55064 6.00558 5.60503 5.97742L7.29677 5.12387C7.31116 5.1165 7.32389 5.10628 7.33419 5.09383C7.34449 5.08139 7.35215 5.06697 7.3567 5.05146C7.36125 5.03596 7.3626 5.01969 7.36065 5.00365C7.35871 4.9876 7.35352 4.97212 7.3454 4.95815C6.64285 3.74245 5.34589 3.07701 3.63815 3.07701C1.39422 3.07701 0 4.18202 0 5.93711C0 7.80162 1.6975 8.27254 3.20306 8.59886C4.70861 8.92454 5.38044 9.05187 5.38044 9.63029C5.38044 10.2087 4.89096 10.4813 3.91328 10.4813C3.0111 10.4813 2.34119 10.0692 1.93617 9.26814C1.92918 9.25413 1.91948 9.24164 1.90763 9.23141C1.89578 9.22117 1.88202 9.21339 1.86714 9.20851C1.85226 9.20363 1.83656 9.20175 1.82095 9.20298C1.80535 9.20421 1.79014 9.20852 1.77621 9.21567L0.0889382 10.0507C0.0748604 10.0578 0.0623354 10.0677 0.0520789 10.0798C0.0418224 10.0918 0.0340355 10.1057 0.029163 10.1207C0.0242906 10.1358 0.0224281 10.1516 0.023682 10.1674C0.024936 10.1831 0.0292818 10.1985 0.0364711 10.2125C0.705747 11.5575 2.08013 12.3138 3.9152 12.3138C6.25255 12.3138 7.66468 11.228 7.66468 9.41786C7.66468 7.6071 5.95886 7.08243 4.45587 6.75611V6.75227H4.45523ZM13.5212 3.07765C12.5614 3.07765 11.7143 3.41677 11.1051 4.02206C11.0967 4.03027 11.0861 4.0358 11.0746 4.03798C11.063 4.04015 11.0511 4.03887 11.0403 4.03429C11.0295 4.02971 11.0203 4.02203 11.0138 4.01223C11.0074 4.00242 11.004 3.99093 11.004 3.97919V0.119018C11.0041 0.103311 11.0011 0.0877443 10.9951 0.0732246C10.9891 0.0587049 10.9803 0.0455227 10.9691 0.034446C10.958 0.0233693 10.9448 0.0146197 10.9302 0.00870705C10.9157 0.00279439 10.9001 -0.000163102 10.8844 6.93708e-06H8.76777C8.75207 -0.000163102 8.73648 0.00279439 8.72193 0.00870705C8.70738 0.0146197 8.69415 0.0233693 8.68302 0.034446C8.67188 0.0455227 8.66306 0.0587049 8.65707 0.0732246C8.65108 0.0877443 8.64804 0.103311 8.64812 0.119018V12.102C8.64812 12.1692 8.70123 12.2217 8.76777 12.2217H10.8844C10.9001 12.2218 10.9158 12.2188 10.9304 12.2129C10.945 12.2069 10.9582 12.1981 10.9694 12.187C10.9805 12.1758 10.9893 12.1626 10.9953 12.148C11.0012 12.1334 11.0042 12.1178 11.004 12.102V6.84569C11.004 5.8309 11.7827 5.05221 12.8333 5.05221C13.8833 5.05221 14.6441 5.81426 14.6441 6.84569V12.102C14.6441 12.1692 14.6966 12.2217 14.7637 12.2217H16.8803C16.8961 12.2217 16.9116 12.2187 16.9261 12.2127C16.9407 12.2067 16.9538 12.1979 16.9649 12.1868C16.976 12.1756 16.9847 12.1624 16.9907 12.1478C16.9966 12.1333 16.9995 12.1177 16.9994 12.102V6.84569C16.9994 4.63759 15.5508 3.07765 13.5212 3.07765ZM21.2933 2.73342C20.1442 2.73342 19.068 3.08533 18.2944 3.59337C18.2688 3.61007 18.2505 3.63595 18.2434 3.6657C18.2362 3.69546 18.2407 3.72681 18.256 3.75333L19.1889 5.34462C19.2235 5.40156 19.2964 5.4214 19.3527 5.38685C19.9395 5.03318 20.6127 4.84851 21.2978 4.85322C23.1451 4.85322 24.5034 6.1553 24.5034 7.87648C24.5034 9.343 23.4157 10.4295 22.0381 10.4295C20.9152 10.4295 20.1359 9.77553 20.1359 8.85352C20.1359 8.32565 20.3605 7.89311 20.9453 7.58727C20.9597 7.57994 20.9724 7.56971 20.9827 7.55721C20.993 7.54471 21.0005 7.53021 21.0049 7.51464C21.0093 7.49907 21.0104 7.48276 21.0082 7.46674C21.006 7.45072 21.0005 7.43533 20.992 7.42155L20.1122 5.93327C20.098 5.90935 20.076 5.89113 20.0498 5.88178C20.0236 5.87243 19.995 5.87254 19.9689 5.88209C18.789 6.3191 17.9617 7.371 17.9617 8.7825C17.9617 10.9183 19.6637 12.5121 22.0368 12.5121C24.8093 12.5121 26.8024 10.5926 26.8024 7.84001C26.8024 4.88969 24.4836 2.73406 21.294 2.73406L21.2933 2.73342ZM32.9935 3.0591C31.9231 3.0591 30.9659 3.4558 30.2678 4.15131C30.2596 4.15979 30.249 4.1656 30.2374 4.16798C30.2258 4.17035 30.2138 4.16919 30.2029 4.16463C30.1919 4.16007 30.1827 4.15234 30.1762 4.14243C30.1698 4.13252 30.1664 4.1209 30.1667 4.10908V3.27153C30.1668 3.25587 30.1638 3.24036 30.1578 3.22588C30.1519 3.21141 30.1431 3.19825 30.132 3.18718C30.121 3.17612 30.1078 3.16735 30.0933 3.1614C30.0789 3.15545 30.0633 3.15243 30.0477 3.15252H27.9855C27.9698 3.15235 27.9542 3.1553 27.9396 3.16122C27.9251 3.16713 27.9118 3.17588 27.9007 3.18695C27.8896 3.19803 27.8808 3.21121 27.8748 3.22573C27.8688 3.24025 27.8657 3.25582 27.8658 3.27153V15.2366C27.8658 15.3031 27.9183 15.3556 27.9855 15.3556H30.1021C30.1178 15.3558 30.1335 15.3528 30.1481 15.3468C30.1627 15.3409 30.1759 15.3321 30.1871 15.3209C30.1982 15.3098 30.207 15.2965 30.213 15.2819C30.2189 15.2674 30.2219 15.2517 30.2217 15.236V11.3131C30.2217 11.26 30.2844 11.2337 30.3228 11.2683C31.019 11.9158 31.9397 12.2933 32.9935 12.2933C35.4761 12.2933 37.4129 10.2855 37.4129 7.67621C37.4129 5.06757 35.4742 3.0591 32.9935 3.0591ZM32.593 10.2669C31.1808 10.2669 30.1104 9.14465 30.1104 7.66021C30.1104 6.17577 31.1789 5.05349 32.593 5.05349C34.007 5.05349 35.0737 6.15786 35.0737 7.66021C35.0737 9.1632 34.0218 10.2669 32.5911 10.2669H32.593Z" fill="white"/>
</svg>
