<svg width="21" height="20" viewBox="0 0 21 20" fill="none" xmlns="http://www.w3.org/2000/svg">
<path d="M9.87287 0.267481C9.98869 -0.089159 10.4933 -0.089159 10.6091 0.267473L12.7614 6.89128C12.8132 7.05076 12.9618 7.15876 13.1295 7.15876H20.0942C20.4692 7.15876 20.6251 7.63861 20.3217 7.85902L14.6872 11.9527C14.5515 12.0513 14.4947 12.226 14.5465 12.3855L16.6988 19.0093C16.8146 19.3659 16.4064 19.6625 16.103 19.4421L10.4685 15.3483C10.3328 15.2498 10.1492 15.2498 10.0135 15.3483L4.37894 19.4421C4.07557 19.6625 3.66738 19.3659 3.78326 19.0093L5.93546 12.3855C5.98728 12.226 5.93051 12.0513 5.79484 11.9527L0.160307 7.85902C-0.143061 7.63861 0.0128463 7.15876 0.387835 7.15876H7.35249C7.52018 7.15876 7.66882 7.05076 7.72062 6.89128L9.87287 0.267481Z" fill="url(#paint0_linear_51_48)"/>
<defs>
<linearGradient id="paint0_linear_51_48" x1="0" y1="0" x2="2048.2" y2="0" gradientUnits="userSpaceOnUse">
<stop offset="1" stop-color="#FFB703"/>
</linearGradient>
</defs>
</svg>
