<svg width="22" height="22" viewBox="0 0 22 22" fill="none" xmlns="http://www.w3.org/2000/svg">
<path d="M11.5622 1.875H14.5762C14.5762 1.875 14.4035 5.736 18.7507 6.0198V9.0019C18.7507 9.0019 16.4253 9.1438 14.5751 7.7281L14.6059 13.8947C14.6061 14.9988 14.2788 16.0782 13.6654 16.9962C13.052 17.9142 12.18 18.6296 11.1598 19.0518C10.1397 19.4741 9.01717 19.5843 7.93439 19.3684C6.8516 19.1525 5.8572 18.6202 5.07702 17.8389C4.29685 17.0577 3.76596 16.0625 3.55155 14.9795C3.33714 13.8964 3.44884 12.774 3.87251 11.7545C4.29619 10.7349 5.0128 9.86391 5.93166 9.25175C6.85051 8.63958 7.93032 8.31376 9.03442 8.3155H9.81321V11.379C9.30516 11.2216 8.76042 11.2285 8.25651 11.3987C7.75259 11.5688 7.31519 11.8936 7.00656 12.3268C6.69793 12.7599 6.53379 13.2794 6.5375 13.8113C6.54121 14.3431 6.71259 14.8602 7.02725 15.2891C7.3419 15.7179 7.7838 16.0365 8.29004 16.1996C8.79628 16.3627 9.34107 16.362 9.84687 16.1975C10.3527 16.0331 10.7937 15.7132 11.1072 15.2836C11.4207 14.854 11.5907 14.3364 11.593 13.8045L11.5622 1.875Z" fill="white"/>
</svg>
