<svg width="22" height="22" viewBox="0 0 22 22" fill="none" xmlns="http://www.w3.org/2000/svg">
<path d="M20.4688 5.46336C19.9454 6.24042 19.2911 6.92077 18.5351 7.47416C18.5351 7.52916 18.5351 7.61716 18.5571 7.72716L18.5791 7.98236C18.5763 10.1626 17.9267 12.2931 16.7123 14.1039C16.0891 15.0432 15.3379 15.891 14.4804 16.6229C13.5564 17.394 12.5012 17.9928 11.3652 18.3906C9.75125 18.9676 8.02712 19.1699 6.32337 18.9822C4.61963 18.7945 2.98091 18.2217 1.53125 17.3071C1.90745 17.3291 2.20555 17.3511 2.44865 17.3511C4.26035 17.3511 5.87405 16.7989 7.28865 15.6945C6.47734 15.6694 5.69314 15.3966 5.04131 14.9129C4.38949 14.4292 3.90125 13.7577 3.64215 12.9885C4.22295 13.1293 4.83015 13.1062 5.39885 12.9214C4.52169 12.7493 3.73222 12.2762 3.16695 11.5838C2.58652 10.8993 2.27284 10.0282 2.28365 9.13076V9.09776C2.79185 9.36396 3.36605 9.50696 4.02935 9.53996C3.50177 9.18933 3.0699 8.71274 2.77278 8.15327C2.47567 7.5938 2.32268 6.96911 2.32765 6.33566C2.32765 5.66246 2.48165 5.01016 2.82485 4.35786C3.7833 5.55838 4.98912 6.53834 6.36025 7.23106C7.76168 7.94125 9.29846 8.34439 10.8681 8.41356C10.7806 8.12659 10.7325 7.82907 10.725 7.52916C10.725 6.45776 11.0991 5.54036 11.8625 4.79016C12.2289 4.41741 12.6681 4.124 13.1527 3.92815C13.6373 3.73229 14.157 3.63818 14.6796 3.65166C15.2054 3.65203 15.7256 3.75995 16.2081 3.9688C16.6907 4.17764 17.1255 4.48298 17.4857 4.86606C18.356 4.70139 19.1902 4.3837 19.9496 3.92776C19.672 4.83056 19.0644 5.59563 18.248 6.07056C19.0122 5.97338 19.7597 5.77281 20.4699 5.47436L20.4688 5.46336Z" fill="white"/>
</svg>
